# 3ds Max Wavefront OBJ Exporter v0.99 - (c)2007 guruware
# File Created: 03.04.2024 03:31:54

mtllib billboard_M.mtl

#
# object Box001
#

v  -135.0000 0.0000 -2.5000
v  135.0000 0.0000 -2.5000
v  135.0000 0.0000 2.5000
v  -135.0000 0.0000 2.5000
v  135.0000 110.0000 2.5000
v  135.0000 110.0000 -2.5000
v  -135.0000 110.0000 -2.5000
v  -135.0000 110.0000 2.5000
v  134.0000 1.0000 2.5000
v  134.0000 109.0000 2.5000
v  -134.0000 109.0000 2.5000
v  -134.0000 1.0000 2.5000
# 12 vertices

vn -0.5774 -0.5774 -0.5774
vn 0.5774 -0.5774 -0.5774
vn 0.5774 -0.5774 0.5774
vn -0.5774 -0.5774 0.5774
vn 0.5774 0.5774 0.5774
vn 0.5774 0.5774 -0.5774
vn -0.5774 0.5774 -0.5774
vn -0.5774 0.5774 0.5774
vn 0.0000 0.0000 1.0000
# 9 vertex normals

vt 0.0205 0.5981 0.0000
vt 0.9795 0.5981 0.0000
vt 0.9795 0.6158 0.0000
vt 0.0205 0.6158 0.0000
vt 0.9795 0.5973 0.0000
vt 0.9795 0.6151 0.0000
vt 0.0205 0.6151 0.0000
vt 0.0205 0.5973 0.0000
vt 0.9600 0.0186 0.0000
vt 0.9600 0.3894 0.0000
vt 0.0400 0.3894 0.0000
vt 0.0400 0.0186 0.0000
vt 0.4150 0.6832 0.0000
vt 0.0080 0.6832 0.0000
vt 0.0080 0.6647 0.0000
vt 0.4150 0.6647 0.0000
vt 0.4150 0.6830 0.0000
vt 0.0080 0.6830 0.0000
vt 0.0080 0.6645 0.0000
vt 0.4150 0.6645 0.0000
vt 0.9635 0.0152 0.0000
vt 0.0365 0.0152 0.0000
vt 0.9635 0.3928 0.0000
vt 0.0365 0.3928 0.0000
vt 0.9339 0.8293 0.0000
vt 0.5161 0.8264 0.0000
vt 0.5173 0.6562 0.0000
vt 0.9351 0.6591 0.0000
# 28 texture coords

o Box001
g Box001
usemtl wire_154215229
s off
f 1/1/1 2/2/2 3/3/3 4/4/4 
f 5/5/5 6/6/6 7/7/7 8/8/8 
f 9/9/9 10/10/9 11/11/9 12/12/9 
f 2/13/2 6/14/6 5/15/5 3/16/3 
f 4/17/4 8/18/8 7/19/7 1/20/1 
f 3/21/3 9/9/9 12/12/9 4/22/4 
f 5/23/5 10/10/9 9/9/9 3/21/3 
f 8/24/8 11/11/9 10/10/9 5/23/5 
f 4/22/4 12/12/9 11/11/9 8/24/8 
f 7/25/7 6/26/6 2/27/2 1/28/1 
# 10 polygons

