# 3ds Max Wavefront OBJ Exporter v0.99 - (c)2007 guruware
# File Created: 10.04.2024 18:13:46

mtllib subway floor.mtl

#
# object Plane001
#

v  -6000.0000 0.0000 -300.0000
v  -6000.0000 0.0000 -270.0000
v  6000.0000 0.0000 -270.0000
v  6000.0000 0.0000 -300.0000
v  -6000.0000 0.0000 -220.0000
v  6000.0000 0.0000 -220.0000
v  -6000.0000 0.0000 300.0000
v  6000.0000 0.0000 300.0000
# 8 vertices

vn 0.0000 1.0000 -0.0000
# 1 vertex normals

vt -29.6433 2.0819 0.0000
vt -29.6436 1.9312 0.0000
vt 30.6451 1.8313 0.0000
vt 30.6454 1.9820 0.0000
vt -29.6440 1.6800 0.0000
vt 30.6447 1.5801 0.0000
vt -29.6483 -0.9325 0.0000
vt 30.6403 -1.0324 0.0000
# 8 texture coords

o Plane001
g Plane001
usemtl Material__25
s 1
f 1/1/1 2/2/1 3/3/1 4/4/1 
f 2/2/1 5/5/1 6/6/1 3/3/1 
f 5/5/1 7/7/1 8/8/1 6/6/1 
# 3 polygons

