# 3ds Max Wavefront OBJ Exporter v0.99 - (c)2007 guruware
# File Created: 03.04.2024 04:07:55

mtllib card_M.mtl

#
# object Box001
#

v  -2.7000 0.0000 3.8108
v  -2.7000 0.0000 -2.3380
v  -0.7863 0.0000 -2.3380
v  -0.7863 0.0000 3.8108
v  2.7000 0.1000 3.8108
v  2.7000 0.1000 -2.3380
v  2.2818 0.1000 -2.3380
v  2.2818 0.1000 3.8108
v  -2.3840 0.0000 4.2500
v  -0.7863 0.0000 4.2500
v  -0.7863 0.1000 4.2500
v  -2.3840 0.1000 4.2500
v  2.7000 0.0000 3.8108
v  2.7000 0.0000 -2.3380
v  2.3840 0.0000 -4.2500
v  2.2818 0.0000 -4.2500
v  2.2818 0.1000 -4.2500
v  2.3840 0.1000 -4.2500
v  -2.7000 0.1000 3.8108
v  -2.7000 0.1000 -2.3380
v  2.3840 0.1000 4.2500
v  2.3840 0.0000 4.2500
v  2.5918 0.0000 4.1418
v  2.5918 0.1000 4.1418
v  -2.5918 0.1000 4.1418
v  -2.5918 0.0000 4.1418
v  2.7000 0.1000 -3.9340
v  2.7000 0.0000 -3.9340
v  2.5918 0.0000 -4.1418
v  2.5918 0.1000 -4.1418
v  2.7000 0.0000 3.9340
v  2.7000 0.1000 3.9340
v  -2.7000 0.1000 3.9340
v  -2.7000 0.0000 3.9340
v  -0.8478 0.1000 -4.2500
v  -0.8478 0.0000 -4.2500
v  -2.7000 0.0000 -2.3978
v  -2.7000 0.1000 -2.3978
v  -0.7863 0.0000 -4.2500
v  2.2818 0.0000 4.2500
v  2.2818 0.0000 3.8108
v  -0.7863 0.1000 3.8108
v  2.2818 0.0000 -2.3380
v  -0.7863 0.1000 -2.3380
v  2.2818 0.1000 4.2500
v  -0.7863 0.1000 -4.2500
# 46 vertices

vn -0.7071 -0.7071 -0.0000
vn 0.0000 -1.0000 -0.0000
vn 0.7071 0.7071 -0.0000
vn 0.0000 1.0000 -0.0000
vn -0.1792 -0.6573 0.7320
vn 0.0000 -0.7071 0.7071
vn 0.0000 0.7071 0.7071
vn -0.1792 0.6573 0.7320
vn 0.7071 -0.7071 -0.0000
vn 0.1792 -0.6573 -0.7320
vn 0.0000 -0.7071 -0.7071
vn 0.0000 0.7071 -0.7071
vn 0.1792 0.6573 -0.7320
vn -0.7071 0.7071 -0.0000
vn 0.1792 0.6573 0.7320
vn 0.1792 -0.6573 0.7320
vn 0.5402 -0.6453 0.5402
vn 0.5402 0.6453 0.5402
vn -0.5402 0.6453 0.5402
vn -0.5402 -0.6453 0.5402
vn 0.7320 0.6573 -0.1792
vn 0.7320 -0.6573 -0.1792
vn 0.5402 -0.6453 -0.5402
vn 0.5402 0.6453 -0.5402
vn 0.7320 -0.6573 0.1792
vn 0.7320 0.6573 0.1792
vn -0.7320 0.6573 0.1792
vn -0.7320 -0.6573 0.1792
vn -0.2971 0.6303 -0.7173
vn -0.2971 -0.6303 -0.7173
vn -0.7173 -0.6303 -0.2971
vn -0.7173 0.6303 -0.2971
# 32 vertex normals

vt 0.9851 0.0583 0.0000
vt 0.9851 0.6002 0.0000
vt 0.8165 0.6002 0.0000
vt 0.8165 0.0583 0.0000
vt 0.4905 0.0588 0.0000
vt 0.4905 0.6007 0.0000
vt 0.4536 0.6007 0.0000
vt 0.4536 0.0588 0.0000
vt 0.0467 0.9083 0.0000
vt 0.1806 0.9083 0.0000
vt 0.1806 0.9195 0.0000
vt 0.0467 0.9195 0.0000
vt 0.3414 0.9520 0.0000
vt 0.6361 0.9520 0.0000
vt 0.6361 0.9632 0.0000
vt 0.3414 0.9632 0.0000
vt 0.0502 0.8690 0.0000
vt 0.2317 0.8690 0.0000
vt 0.2317 0.8802 0.0000
vt 0.0502 0.8802 0.0000
vt 0.4686 0.9356 0.0000
vt 0.7058 0.9356 0.0000
vt 0.7058 0.9468 0.0000
vt 0.4686 0.9468 0.0000
vt 0.5824 0.9195 0.0000
vt 0.5824 0.9083 0.0000
vt 0.6058 0.9083 0.0000
vt 0.6058 0.9195 0.0000
vt 0.0233 0.9195 0.0000
vt 0.0233 0.9083 0.0000
vt 0.9307 0.9632 0.0000
vt 0.9307 0.9520 0.0000
vt 0.9541 0.9520 0.0000
vt 0.9541 0.9632 0.0000
vt 0.0467 0.9520 0.0000
vt 0.0467 0.9632 0.0000
vt 0.0233 0.9632 0.0000
vt 0.0233 0.9520 0.0000
vt 0.0268 0.8802 0.0000
vt 0.0268 0.8690 0.0000
vt 0.9429 0.9468 0.0000
vt 0.9429 0.9356 0.0000
vt 0.9663 0.9356 0.0000
vt 0.9663 0.9468 0.0000
vt 0.0233 0.9468 0.0000
vt 0.0233 0.9356 0.0000
vt 0.2315 0.9356 0.0000
vt 0.2315 0.9468 0.0000
vt 0.9851 0.6054 0.0000
vt 0.8219 0.7686 0.0000
vt 0.8165 0.7686 0.0000
vt 0.5093 0.0583 0.0000
vt 0.5093 0.0475 0.0000
vt 0.5188 0.0292 0.0000
vt 0.5371 0.0196 0.0000
vt 0.5461 0.0196 0.0000
vt 0.5461 0.0583 0.0000
vt 0.4905 0.7413 0.0000
vt 0.4809 0.7596 0.0000
vt 0.4626 0.7692 0.0000
vt 0.4536 0.7692 0.0000
vt 0.0146 0.0588 0.0000
vt 0.0146 0.0480 0.0000
vt 0.0241 0.0297 0.0000
vt 0.0424 0.0201 0.0000
vt 0.1832 0.0201 0.0000
vt 0.1832 0.0588 0.0000
vt 0.5461 0.6002 0.0000
vt 0.5093 0.6002 0.0000
vt 0.1832 0.6007 0.0000
vt 0.3146 0.9083 0.0000
vt 0.3146 0.9195 0.0000
vt 0.3225 0.8690 0.0000
vt 0.3225 0.8802 0.0000
vt 0.5461 0.7687 0.0000
vt 0.5371 0.7687 0.0000
vt 0.5188 0.7591 0.0000
vt 0.5093 0.7408 0.0000
vt 0.8165 0.0196 0.0000
vt 0.1832 0.7692 0.0000
vt 0.4536 0.0201 0.0000
vt 0.4626 0.0201 0.0000
vt 0.4809 0.0297 0.0000
vt 0.4905 0.0480 0.0000
vt 0.0146 0.6007 0.0000
vt 0.4133 0.8690 0.0000
vt 0.4133 0.8802 0.0000
vt 0.9573 0.0196 0.0000
vt 0.9756 0.0292 0.0000
vt 0.9851 0.0475 0.0000
vt 0.1778 0.7692 0.0000
vt 0.0146 0.6060 0.0000
# 92 texture coords

o Box001
g Box001
usemtl wire_227153153
s 1
f 1/1/1 2/2/1 3/3/2 4/4/2 
f 5/5/3 6/6/3 7/7/4 8/8/4 
s 2
f 9/9/5 10/10/6 11/11/7 12/12/8 
s 4
f 13/13/9 14/14/9 6/15/3 5/16/3 
s 2
f 15/17/10 16/18/11 17/19/12 18/20/13 
s 4
f 2/21/1 1/22/1 19/23/14 20/24/14 
s 2
f 21/25/15 22/26/16 23/27/17 24/28/18 
f 9/9/5 12/12/8 25/29/19 26/30/20 
s 4
f 27/31/21 28/32/22 29/33/23 30/34/24 
f 31/35/25 32/36/26 24/37/18 23/38/17 
s 2
f 15/17/10 18/20/13 30/39/24 29/40/23 
s 4
f 33/41/27 34/42/28 26/43/20 25/44/19 
s 8
f 35/45/29 36/46/30 37/47/31 38/48/32 
s 1
f 2/2/1 37/49/31 36/50/30 39/51/11 3/3/2 
f 13/52/9 31/53/25 23/54/17 22/55/16 40/56/6 41/57/2 
f 6/6/3 27/58/21 30/59/24 18/60/13 17/61/12 7/7/4 
f 19/62/14 33/63/27 25/64/19 12/65/8 11/66/7 42/67/4 
s 4
f 14/14/9 28/32/22 27/31/21 6/15/3 
f 5/16/3 32/36/26 31/35/25 13/13/9 
f 1/22/1 34/42/28 33/41/27 19/23/14 
f 20/24/14 38/48/32 37/47/31 2/21/1 
s 1
f 43/68/2 14/69/9 13/52/9 41/57/2 
f 7/7/4 44/70/4 42/67/4 8/8/4 
s 2
f 40/71/6 22/26/16 21/25/15 45/72/7 
f 16/18/11 39/73/11 46/74/12 17/19/12 
s 1
f 16/75/11 15/76/10 29/77/23 28/78/22 14/69/9 43/68/2 
f 40/56/6 10/79/6 4/4/2 41/57/2 
f 17/61/12 46/80/12 44/70/4 7/7/4 
f 45/81/7 21/82/15 24/83/18 32/84/26 5/5/3 8/8/4 
f 3/3/2 43/68/2 41/57/2 4/4/2 
s 2
f 10/10/6 40/71/6 45/72/7 11/11/7 
s 1
f 39/51/11 16/75/11 43/68/2 3/3/2 
f 11/66/7 45/81/7 8/8/4 42/67/4 
f 44/70/4 20/85/14 19/62/14 42/67/4 
s 2
f 39/73/11 36/86/30 35/87/29 46/74/12 
s 1
f 10/79/6 9/88/5 26/89/20 34/90/28 1/1/1 4/4/2 
f 46/80/12 35/91/29 38/92/32 20/85/14 44/70/4 
# 37 polygons

