# 3ds Max Wavefront OBJ Exporter v0.99 - (c)2007 guruware
# File Created: 10.04.2024 02:09:03

mtllib subway ad.mtl

#
# object ad001
#

v  -139.6017 209.9990 142.3441
v  -139.6017 209.9984 141.6291
v  10.7050 209.9984 141.6292
v  10.7051 209.9990 142.3441
v  10.7050 213.7407 136.0646
v  -139.6017 213.7407 136.0645
v  -139.6017 216.6113 130.0620
v  10.7050 216.6113 130.0620
v  611.9323 209.9990 142.3444
v  611.9322 209.9984 141.6295
v  762.2390 209.9984 141.6295
v  762.2390 209.9990 142.3445
v  461.6254 209.9990 142.3444
v  461.6254 209.9984 141.6294
v  311.3187 209.9990 142.3443
v  311.3186 209.9984 141.6293
v  161.0118 209.9990 142.3442
v  161.0119 209.9984 141.6292
v  -590.5222 209.9984 141.6289
v  -590.5220 209.9990 142.3438
v  -740.8289 209.9990 142.3438
v  -740.8289 209.9984 141.6288
v  -440.2153 209.9984 141.6289
v  -440.2153 209.9990 142.3439
v  -289.9086 209.9984 141.6290
v  -289.9085 209.9990 142.3440
v  762.2390 213.7407 136.0649
v  611.9322 213.7407 136.0649
v  611.9322 216.6113 130.0623
v  762.2390 216.6113 130.0624
v  461.6254 213.7407 136.0648
v  461.6254 216.6113 130.0623
v  311.3186 213.7407 136.0647
v  311.3186 216.6113 130.0622
v  161.0118 213.7407 136.0647
v  161.0118 216.6113 130.0621
v  -740.8289 216.6113 130.0617
v  -590.5222 216.6113 130.0617
v  -590.5222 213.7407 136.0643
v  -740.8289 213.7407 136.0642
v  -440.2154 216.6113 130.0618
v  -440.2153 213.7407 136.0644
v  -289.9086 216.6113 130.0619
v  -289.9086 213.7407 136.0645
v  -139.6017 217.9112 123.2913
v  10.7050 217.9112 123.2914
v  611.9322 217.9112 123.2917
v  762.2390 217.9112 123.2918
v  461.6254 217.9112 123.2916
v  311.3185 217.9112 123.2916
v  161.0118 217.9112 123.2915
v  -740.8289 217.9112 123.2911
v  -590.5222 217.9112 123.2911
v  -440.2154 217.9112 123.2912
v  -289.9086 217.9112 123.2913
v  -139.6016 209.9990 -142.3442
v  10.7052 209.9990 -142.3441
v  10.7051 209.9985 -141.6292
v  -139.6016 209.9985 -141.6292
v  10.7051 213.7407 -136.0646
v  10.7051 216.6113 -130.0620
v  -139.6016 216.6113 -130.0621
v  -139.6016 213.7407 -136.0647
v  611.9324 209.9990 -142.3438
v  762.2392 209.9990 -142.3438
v  762.2392 209.9985 -141.6288
v  611.9324 209.9985 -141.6289
v  461.6255 209.9990 -142.3439
v  461.6255 209.9985 -141.6289
v  311.3188 209.9990 -142.3440
v  311.3188 209.9985 -141.6290
v  161.0120 209.9990 -142.3441
v  161.0120 209.9985 -141.6291
v  -590.5220 209.9985 -141.6294
v  -740.8288 209.9985 -141.6295
v  -740.8288 209.9990 -142.3445
v  -590.5219 209.9990 -142.3444
v  -440.2151 209.9985 -141.6294
v  -440.2151 209.9990 -142.3443
v  -289.9084 209.9985 -141.6293
v  -289.9084 209.9990 -142.3443
v  762.2391 213.7407 -136.0642
v  762.2391 216.6113 -130.0617
v  611.9323 216.6113 -130.0617
v  611.9323 213.7407 -136.0643
v  461.6255 216.6113 -130.0618
v  461.6255 213.7407 -136.0644
v  311.3187 216.6113 -130.0619
v  311.3187 213.7407 -136.0644
v  161.0119 216.6113 -130.0620
v  161.0120 213.7407 -136.0645
v  -740.8288 216.6113 -130.0624
v  -740.8288 213.7407 -136.0649
v  -590.5220 213.7407 -136.0649
v  -590.5220 216.6113 -130.0623
v  -440.2151 213.7407 -136.0648
v  -440.2153 216.6113 -130.0622
v  -289.9084 213.7407 -136.0647
v  -289.9084 216.6113 -130.0622
v  10.7051 217.9112 -123.2914
v  -139.6016 217.9112 -123.2915
v  762.2391 217.9112 -123.2910
v  611.9323 217.9112 -123.2911
v  461.6255 217.9112 -123.2912
v  311.3187 217.9112 -123.2913
v  161.0119 217.9112 -123.2913
v  -590.5220 217.9112 -123.2917
v  -740.8288 217.9112 -123.2918
v  -440.2153 217.9112 -123.2916
v  -289.9084 217.9112 -123.2915
# 110 vertices

vn -0.0000 -1.0000 0.0008
vn 0.0000 -0.9566 -0.2913
vn 0.0000 -0.8683 -0.4961
vn 0.0000 -0.9499 -0.3126
vn 0.0000 -0.9821 -0.1885
vn 0.0000 -1.0000 -0.0008
vn -0.0000 -0.9566 0.2913
vn -0.0000 -0.8683 0.4961
vn -0.0000 -0.9499 0.3126
vn -0.0000 -0.9821 0.1885
# 10 vertex normals

vt 0.0256 0.4205 0.0000
vt 0.0256 0.4186 0.0000
vt 0.4193 0.4186 0.0000
vt 0.4193 0.4205 0.0000
vt 0.4193 0.4040 0.0000
vt 0.0256 0.4040 0.0000
vt 0.0256 0.3883 0.0000
vt 0.4193 0.3883 0.0000
vt 0.4376 0.9744 0.0000
vt 0.4376 0.9725 0.0000
vt 0.8313 0.9725 0.0000
vt 0.8313 0.9744 0.0000
vt 0.4333 0.7302 0.0000
vt 0.4333 0.7283 0.0000
vt 0.8270 0.7283 0.0000
vt 0.8270 0.7302 0.0000
vt 0.0173 0.9805 0.0000
vt 0.0173 0.9786 0.0000
vt 0.4111 0.9786 0.0000
vt 0.4111 0.9805 0.0000
vt 0.0204 0.7302 0.0000
vt 0.0204 0.7283 0.0000
vt 0.4141 0.7283 0.0000
vt 0.4141 0.7302 0.0000
vt 0.0238 0.5601 0.0000
vt 0.0238 0.5583 0.0000
vt 0.4175 0.5583 0.0000
vt 0.4175 0.5601 0.0000
vt 0.4036 0.2771 0.0000
vt 0.4036 0.2790 0.0000
vt 0.0099 0.2790 0.0000
vt 0.0099 0.2771 0.0000
vt 0.4077 0.1304 0.0000
vt 0.4077 0.1322 0.0000
vt 0.0140 0.1322 0.0000
vt 0.0140 0.1304 0.0000
vt 0.8127 0.1304 0.0000
vt 0.8127 0.1322 0.0000
vt 0.4189 0.1322 0.0000
vt 0.4189 0.1304 0.0000
vt 0.8142 0.2717 0.0000
vt 0.8142 0.2736 0.0000
vt 0.4204 0.2736 0.0000
vt 0.4204 0.2717 0.0000
vt 0.8313 0.9579 0.0000
vt 0.4376 0.9579 0.0000
vt 0.4376 0.9422 0.0000
vt 0.8313 0.9422 0.0000
vt 0.8270 0.7138 0.0000
vt 0.4333 0.7138 0.0000
vt 0.4333 0.6980 0.0000
vt 0.8270 0.6980 0.0000
vt 0.4111 0.9640 0.0000
vt 0.0173 0.9640 0.0000
vt 0.0173 0.9483 0.0000
vt 0.4111 0.9483 0.0000
vt 0.4141 0.7138 0.0000
vt 0.0204 0.7138 0.0000
vt 0.0204 0.6980 0.0000
vt 0.4141 0.6980 0.0000
vt 0.4175 0.5437 0.0000
vt 0.0238 0.5437 0.0000
vt 0.0238 0.5280 0.0000
vt 0.4175 0.5280 0.0000
vt 0.0099 0.2468 0.0000
vt 0.4036 0.2468 0.0000
vt 0.4036 0.2626 0.0000
vt 0.0099 0.2626 0.0000
vt 0.0140 0.1001 0.0000
vt 0.4077 0.1001 0.0000
vt 0.4077 0.1158 0.0000
vt 0.0140 0.1158 0.0000
vt 0.4189 0.1001 0.0000
vt 0.8127 0.1001 0.0000
vt 0.8127 0.1158 0.0000
vt 0.4189 0.1158 0.0000
vt 0.4204 0.2414 0.0000
vt 0.8142 0.2414 0.0000
vt 0.8142 0.2571 0.0000
vt 0.4204 0.2571 0.0000
vt 0.0256 0.3705 0.0000
vt 0.4193 0.3705 0.0000
vt 0.4376 0.9244 0.0000
vt 0.8313 0.9244 0.0000
vt 0.4333 0.6803 0.0000
vt 0.8270 0.6803 0.0000
vt 0.0173 0.9305 0.0000
vt 0.4111 0.9305 0.0000
vt 0.0204 0.6803 0.0000
vt 0.4141 0.6803 0.0000
vt 0.0238 0.5102 0.0000
vt 0.4175 0.5102 0.0000
vt 0.0099 0.2291 0.0000
vt 0.4036 0.2291 0.0000
vt 0.0140 0.0823 0.0000
vt 0.4077 0.0823 0.0000
vt 0.4189 0.0823 0.0000
vt 0.8127 0.0823 0.0000
vt 0.4204 0.2237 0.0000
vt 0.8142 0.2237 0.0000
vt 0.0256 0.3139 0.0000
vt 0.4193 0.3139 0.0000
vt 0.4193 0.3158 0.0000
vt 0.0256 0.3158 0.0000
vt 0.4193 0.3304 0.0000
vt 0.4193 0.3461 0.0000
vt 0.0256 0.3461 0.0000
vt 0.0256 0.3304 0.0000
vt 0.4376 0.8678 0.0000
vt 0.8313 0.8678 0.0000
vt 0.8313 0.8697 0.0000
vt 0.4376 0.8697 0.0000
vt 0.4333 0.6237 0.0000
vt 0.8270 0.6237 0.0000
vt 0.8270 0.6256 0.0000
vt 0.4333 0.6256 0.0000
vt 0.0173 0.8739 0.0000
vt 0.4111 0.8739 0.0000
vt 0.4111 0.8758 0.0000
vt 0.0173 0.8758 0.0000
vt 0.0204 0.6237 0.0000
vt 0.4141 0.6237 0.0000
vt 0.4141 0.6256 0.0000
vt 0.0204 0.6256 0.0000
vt 0.0238 0.4536 0.0000
vt 0.4175 0.4536 0.0000
vt 0.4175 0.4555 0.0000
vt 0.0238 0.4555 0.0000
vt 0.4036 0.1744 0.0000
vt 0.0099 0.1744 0.0000
vt 0.0099 0.1725 0.0000
vt 0.4036 0.1725 0.0000
vt 0.4077 0.0276 0.0000
vt 0.0140 0.0276 0.0000
vt 0.0140 0.0257 0.0000
vt 0.4077 0.0257 0.0000
vt 0.8127 0.0276 0.0000
vt 0.4189 0.0276 0.0000
vt 0.4189 0.0257 0.0000
vt 0.8127 0.0257 0.0000
vt 0.8142 0.1689 0.0000
vt 0.4204 0.1689 0.0000
vt 0.4204 0.1671 0.0000
vt 0.8142 0.1671 0.0000
vt 0.8313 0.8843 0.0000
vt 0.8313 0.9000 0.0000
vt 0.4376 0.9000 0.0000
vt 0.4376 0.8843 0.0000
vt 0.8270 0.6402 0.0000
vt 0.8270 0.6559 0.0000
vt 0.4333 0.6559 0.0000
vt 0.4333 0.6402 0.0000
vt 0.4111 0.8904 0.0000
vt 0.4111 0.9061 0.0000
vt 0.0173 0.9061 0.0000
vt 0.0173 0.8904 0.0000
vt 0.4141 0.6402 0.0000
vt 0.4141 0.6559 0.0000
vt 0.0204 0.6559 0.0000
vt 0.0204 0.6402 0.0000
vt 0.4175 0.4701 0.0000
vt 0.4175 0.4858 0.0000
vt 0.0238 0.4858 0.0000
vt 0.0238 0.4701 0.0000
vt 0.0099 0.2047 0.0000
vt 0.0099 0.1890 0.0000
vt 0.4036 0.1890 0.0000
vt 0.4036 0.2047 0.0000
vt 0.0140 0.0579 0.0000
vt 0.0140 0.0422 0.0000
vt 0.4077 0.0422 0.0000
vt 0.4077 0.0579 0.0000
vt 0.4189 0.0579 0.0000
vt 0.4189 0.0422 0.0000
vt 0.8127 0.0422 0.0000
vt 0.8127 0.0579 0.0000
vt 0.4204 0.1992 0.0000
vt 0.4204 0.1835 0.0000
vt 0.8142 0.1835 0.0000
vt 0.8142 0.1992 0.0000
vt 0.4193 0.3639 0.0000
vt 0.0256 0.3639 0.0000
vt 0.8313 0.9177 0.0000
vt 0.4376 0.9177 0.0000
vt 0.8270 0.6736 0.0000
vt 0.4333 0.6736 0.0000
vt 0.4111 0.9239 0.0000
vt 0.0173 0.9239 0.0000
vt 0.4141 0.6736 0.0000
vt 0.0204 0.6736 0.0000
vt 0.4175 0.5035 0.0000
vt 0.0238 0.5035 0.0000
vt 0.4036 0.2224 0.0000
vt 0.0099 0.2224 0.0000
vt 0.4077 0.0756 0.0000
vt 0.0140 0.0756 0.0000
vt 0.8127 0.0756 0.0000
vt 0.4189 0.0756 0.0000
vt 0.8142 0.2170 0.0000
vt 0.4204 0.2170 0.0000
# 200 texture coords

o ad001
g ad001
usemtl Celling
s 2
f 1/1/1 2/2/2 3/3/2 4/4/1 
s 8
f 5/5/3 6/6/3 7/7/4 8/8/4 
s 2
f 9/9/1 10/10/2 11/11/2 12/12/1 
f 13/13/1 14/14/2 10/15/2 9/16/1 
f 15/17/1 16/18/2 14/19/2 13/20/1 
f 17/21/1 18/22/2 16/23/2 15/24/1 
f 4/25/1 3/26/2 18/27/2 17/28/1 
f 19/29/2 20/30/1 21/31/1 22/32/2 
f 23/33/2 24/34/1 20/35/1 19/36/2 
f 25/37/2 26/38/1 24/39/1 23/40/2 
f 2/41/2 1/42/1 26/43/1 25/44/2 
s 8
f 27/45/3 28/46/3 29/47/4 30/48/4 
f 28/49/3 31/50/3 32/51/4 29/52/4 
f 31/53/3 33/54/3 34/55/4 32/56/4 
f 33/57/3 35/58/3 36/59/4 34/60/4 
f 35/61/3 5/62/3 8/63/4 36/64/4 
f 37/65/4 38/66/4 39/67/3 40/68/3 
f 38/69/4 41/70/4 42/71/3 39/72/3 
f 41/73/4 43/74/4 44/75/3 42/76/3 
f 43/77/4 7/78/4 6/79/3 44/80/3 
f 8/8/4 7/7/4 45/81/5 46/82/5 
f 6/6/3 5/5/3 3/3/2 2/2/2 
f 30/48/4 29/47/4 47/83/5 48/84/5 
f 28/46/3 27/45/3 11/11/2 10/10/2 
f 29/52/4 32/51/4 49/85/5 47/86/5 
f 31/50/3 28/49/3 10/15/2 14/14/2 
f 32/56/4 34/55/4 50/87/5 49/88/5 
f 33/54/3 31/53/3 14/19/2 16/18/2 
f 34/60/4 36/59/4 51/89/5 50/90/5 
f 35/58/3 33/57/3 16/23/2 18/22/2 
f 36/64/4 8/63/4 46/91/5 51/92/5 
f 5/62/3 35/61/3 18/27/2 3/26/2 
f 40/68/3 39/67/3 19/29/2 22/32/2 
f 38/66/4 37/65/4 52/93/5 53/94/5 
f 39/72/3 42/71/3 23/33/2 19/36/2 
f 41/70/4 38/69/4 53/95/5 54/96/5 
f 42/76/3 44/75/3 25/37/2 23/40/2 
f 43/74/4 41/73/4 54/97/5 55/98/5 
f 44/80/3 6/79/3 2/41/2 25/44/2 
f 7/78/4 43/77/4 55/99/5 45/100/5 
s 2
f 56/101/6 57/102/6 58/103/7 59/104/7 
s 8
f 60/105/8 61/106/9 62/107/9 63/108/8 
s 2
f 64/109/6 65/110/6 66/111/7 67/112/7 
f 68/113/6 64/114/6 67/115/7 69/116/7 
f 70/117/6 68/118/6 69/119/7 71/120/7 
f 72/121/6 70/122/6 71/123/7 73/124/7 
f 57/125/6 72/126/6 73/127/7 58/128/7 
f 74/129/7 75/130/7 76/131/6 77/132/6 
f 78/133/7 74/134/7 77/135/6 79/136/6 
f 80/137/7 78/138/7 79/139/6 81/140/6 
f 59/141/7 80/142/7 81/143/6 56/144/6 
s 8
f 82/145/8 83/146/9 84/147/9 85/148/8 
f 85/149/8 84/150/9 86/151/9 87/152/8 
f 87/153/8 86/154/9 88/155/9 89/156/8 
f 89/157/8 88/158/9 90/159/9 91/160/8 
f 91/161/8 90/162/9 61/163/9 60/164/8 
f 92/165/9 93/166/8 94/167/8 95/168/9 
f 95/169/9 94/170/8 96/171/8 97/172/9 
f 97/173/9 96/174/8 98/175/8 99/176/9 
f 99/177/9 98/178/8 63/179/8 62/180/9 
f 61/106/9 100/181/10 101/182/10 62/107/9 
f 63/108/8 59/104/7 58/103/7 60/105/8 
f 83/146/9 102/183/10 103/184/10 84/147/9 
f 85/148/8 67/112/7 66/111/7 82/145/8 
f 84/150/9 103/185/10 104/186/10 86/151/9 
f 87/152/8 69/116/7 67/115/7 85/149/8 
f 86/154/9 104/187/10 105/188/10 88/155/9 
f 89/156/8 71/120/7 69/119/7 87/153/8 
f 88/158/9 105/189/10 106/190/10 90/159/9 
f 91/160/8 73/124/7 71/123/7 89/157/8 
f 90/162/9 106/191/10 100/192/10 61/163/9 
f 60/164/8 58/128/7 73/127/7 91/161/8 
f 93/166/8 75/130/7 74/129/7 94/167/8 
f 95/168/9 107/193/10 108/194/10 92/165/9 
f 94/170/8 74/134/7 78/133/7 96/171/8 
f 97/172/9 109/195/10 107/196/10 95/169/9 
f 96/174/8 78/138/7 80/137/7 98/175/8 
f 99/176/9 110/197/10 109/198/10 97/173/9 
f 98/178/8 80/142/7 59/141/7 63/179/8 
f 62/180/9 101/199/10 110/200/10 99/177/9 
# 80 polygons

