# 3ds Max Wavefront OBJ Exporter v0.99 - (c)2007 guruware
# File Created: 21.04.2024 10:16:14

mtllib emergency_light.mtl

#
# object Box001
#

v  -24.6581 0.0000 6.7343
v  -24.6581 0.0000 -3.2657
v  13.0214 0.0000 -3.2657
v  13.0214 0.0000 6.7343
v  -24.6581 24.0000 6.7343
v  13.0214 24.0000 6.7343
v  13.0214 24.0000 -3.2657
v  -24.6581 24.0000 -3.2657
v  -25.2827 0.5356 6.4531
v  13.6460 0.5356 6.4531
v  13.6460 15.4644 6.4531
v  -25.2827 15.4644 6.4531
v  14.1816 1.1603 6.7343
v  14.1816 1.1603 -3.2657
v  14.1816 16.0000 -3.2657
v  14.1816 16.0000 6.7343
v  13.8875 1.2080 -3.2657
v  13.6590 0.5226 -3.2657
v  12.9736 0.2942 -3.2657
v  -24.6104 0.2942 -3.2657
v  -25.2957 0.5226 -3.2657
v  -25.5242 1.2080 -3.2657
v  -25.5242 15.7058 -3.2657
v  13.8875 15.7058 -3.2657
v  -25.8184 1.1603 -3.2657
v  -25.8184 1.1603 6.7343
v  -25.8184 16.0000 6.7343
v  -25.8184 16.0000 -3.2657
v  13.8875 16.2942 6.7343
v  13.8875 22.7920 6.7343
v  13.6590 23.4774 6.7343
v  12.9736 23.7058 6.7343
v  -24.6104 23.7058 6.7343
v  -25.2957 23.4774 6.7343
v  -25.5242 22.7920 6.7343
v  -25.5242 16.2942 6.7343
v  14.1816 22.8397 -3.2657
v  14.1816 22.8397 6.7343
v  -25.5242 16.2942 -3.2657
v  -25.5242 22.7920 -3.2657
v  -25.2957 23.4774 -3.2657
v  -24.6104 23.7058 -3.2657
v  12.9736 23.7058 -3.2657
v  13.6590 23.4774 -3.2657
v  13.8875 22.7920 -3.2657
v  13.8875 16.2942 -3.2657
v  -25.8184 22.8397 6.7343
v  -25.8184 22.8397 -3.2657
v  -25.5283 0.2901 6.7343
v  13.8916 0.2901 6.7343
v  13.6460 0.5356 6.7343
v  -25.2827 0.5356 6.7343
v  13.6460 15.4644 6.7343
v  -25.2827 15.4644 6.7343
v  -25.5283 0.2901 -3.2657
v  13.8916 0.2901 -3.2657
v  13.8916 23.7099 6.7343
v  13.8916 23.7099 -3.2657
v  -25.5283 23.7099 -3.2657
v  -25.5283 23.7099 6.7343
# 60 vertices

vn -0.1185 -0.7303 0.6728
vn -0.1185 -0.7303 -0.6728
vn 0.1185 -0.7303 -0.6728
vn 0.1185 -0.7303 0.6728
vn -0.1185 0.7303 0.6728
vn 0.1185 0.7303 0.6728
vn 0.1185 0.7303 -0.6728
vn -0.1185 0.7303 -0.6728
vn 0.5774 0.5774 0.5773
vn -0.5774 0.5774 0.5773
vn -0.5774 -0.5774 0.5774
vn 0.5774 -0.5774 0.5774
vn 0.7303 -0.1185 0.6728
vn 0.7303 -0.1185 -0.6728
vn 0.7071 0.0000 -0.7071
vn 0.7071 0.0000 0.7071
vn 0.0000 0.0000 -1.0000
vn -0.7303 -0.1185 -0.6728
vn -0.7303 -0.1185 0.6728
vn -0.7071 0.0000 0.7071
vn -0.7071 0.0000 -0.7071
vn 0.0000 0.0000 1.0000
vn 0.7303 0.1185 -0.6728
vn 0.7303 0.1185 0.6728
vn -0.7303 0.1185 0.6728
vn -0.7303 0.1185 -0.6728
vn -0.5554 -0.5554 0.6189
vn 0.5554 -0.5554 0.6189
vn -0.3015 0.3015 0.9045
vn 0.3015 0.3015 0.9045
vn -0.3015 -0.3015 0.9045
vn 0.3015 -0.3015 0.9045
vn -0.5554 -0.5554 -0.6189
vn 0.5554 -0.5554 -0.6189
vn 0.5554 0.5554 0.6189
vn 0.5554 0.5554 -0.6189
vn -0.5554 0.5554 -0.6189
vn -0.5554 0.5554 0.6189
# 38 vertex normals

vt 0.0170 0.9656 0.0000
vt 0.0170 0.8775 0.0000
vt 0.3488 0.8775 0.0000
vt 0.3488 0.9656 0.0000
vt 0.0189 0.7873 0.0000
vt 0.3449 0.7873 0.0000
vt 0.3449 0.8738 0.0000
vt 0.0189 0.8738 0.0000
vt 0.0183 0.0108 0.0000
vt 0.7700 0.0108 0.0000
vt 0.7700 0.2991 0.0000
vt 0.0183 0.2991 0.0000
vt 0.7568 0.7116 0.0000
vt 0.8741 0.7116 0.0000
vt 0.8741 0.8856 0.0000
vt 0.7568 0.8856 0.0000
vt 0.6350 0.4614 0.0000
vt 0.6375 0.4539 0.0000
vt 0.6449 0.4515 0.0000
vt 0.9670 0.4515 0.0000
vt 0.9744 0.4539 0.0000
vt 0.9769 0.4614 0.0000
vt 0.9769 0.5882 0.0000
vt 0.6350 0.5882 0.0000
vt 0.6374 0.7116 0.0000
vt 0.7547 0.7116 0.0000
vt 0.7547 0.8856 0.0000
vt 0.6374 0.8856 0.0000
vt 0.6165 0.6565 0.0000
vt 0.6165 0.7604 0.0000
vt 0.6121 0.7736 0.0000
vt 0.5988 0.7780 0.0000
vt 0.0268 0.7780 0.0000
vt 0.0136 0.7736 0.0000
vt 0.0092 0.7604 0.0000
vt 0.0092 0.6565 0.0000
vt 0.8741 0.9659 0.0000
vt 0.7568 0.9659 0.0000
vt 0.9769 0.6467 0.0000
vt 0.9744 0.6541 0.0000
vt 0.9670 0.6566 0.0000
vt 0.6449 0.6566 0.0000
vt 0.6375 0.6541 0.0000
vt 0.6350 0.6467 0.0000
vt 0.7547 0.9659 0.0000
vt 0.6374 0.9659 0.0000
vt 0.0136 0.4180 0.0000
vt 0.0268 0.4136 0.0000
vt 0.5988 0.4136 0.0000
vt 0.6121 0.4180 0.0000
vt 0.6083 0.4218 0.0000
vt 0.0173 0.4218 0.0000
vt 0.6165 0.4312 0.0000
vt 0.6083 0.6484 0.0000
vt 0.0173 0.6484 0.0000
vt 0.0092 0.4312 0.0000
vt 0.0094 0.9656 0.0000
vt 0.0094 0.8775 0.0000
vt 0.3565 0.8775 0.0000
vt 0.3565 0.9656 0.0000
vt 0.3525 0.7873 0.0000
vt 0.3525 0.8738 0.0000
vt 0.0113 0.8738 0.0000
vt 0.0113 0.7873 0.0000
vt 0.7568 0.7014 0.0000
vt 0.8741 0.7014 0.0000
vt 0.6374 0.7014 0.0000
vt 0.7547 0.7014 0.0000
vt 0.8741 0.9761 0.0000
vt 0.7568 0.9761 0.0000
vt 0.7547 0.9761 0.0000
vt 0.6374 0.9761 0.0000
vt 0.0094 0.9671 0.0000
vt 0.3522 0.9671 0.0000
vt 0.3522 0.9696 0.0000
vt 0.0094 0.9696 0.0000
vt 0.3748 0.8433 0.0000
vt 0.3748 0.9748 0.0000
vt 0.3723 0.9748 0.0000
vt 0.3723 0.8433 0.0000
vt 0.3539 0.9823 0.0000
vt 0.0111 0.9823 0.0000
vt 0.0111 0.9798 0.0000
vt 0.3539 0.9798 0.0000
vt 0.3667 0.9742 0.0000
vt 0.3667 0.8428 0.0000
vt 0.3692 0.8428 0.0000
vt 0.3692 0.9742 0.0000
# 88 texture coords

o Box001
g Box001
usemtl wire_145028177
s 1
f 1/1/1 2/2/2 3/3/3 4/4/4 
f 5/5/5 6/6/6 7/7/7 8/8/8 
s 2
f 9/9/9 10/10/10 11/11/11 12/12/12 
s 4
f 13/13/13 14/14/14 15/15/15 16/16/16 
s 2
f 17/17/17 18/18/17 19/19/17 20/20/17 21/21/17 22/22/17 23/23/17 24/24/17 
s 4
f 25/25/18 26/26/19 27/27/20 28/28/21 
s 2
f 29/29/22 30/30/22 31/31/22 32/32/22 33/33/22 34/34/22 35/35/22 36/36/22 
s 4
f 15/15/15 37/37/23 38/38/24 16/16/16 
s 2
f 39/23/17 40/39/17 41/40/17 42/41/17 43/42/17 44/43/17 45/44/17 46/24/17 
s 4
f 27/27/20 47/45/25 48/46/26 28/28/21 
s 2
f 49/47/27 1/48/1 4/49/4 50/50/28 51/51/29 52/52/30 
f 50/50/28 13/53/13 16/29/16 53/54/31 51/51/29 
f 16/29/16 27/36/20 54/55/32 53/54/31 
f 27/36/20 26/56/19 49/47/27 52/52/30 54/55/32 
s 1
f 2/2/2 1/1/1 49/57/27 55/58/33 
f 4/4/4 3/3/3 56/59/34 50/60/28 
f 7/7/7 6/6/6 57/61/35 58/62/36 
f 5/5/5 8/8/8 59/63/37 60/64/38 
s 4
f 14/14/14 13/13/13 50/65/28 56/66/34 
f 26/26/19 25/25/18 55/67/33 49/68/27 
f 38/38/24 37/37/23 58/69/36 57/70/35 
f 48/46/26 47/45/25 60/71/38 59/72/37 
s off
f 52/73/30 51/74/29 10/75/10 9/76/9 
f 51/77/29 53/78/31 11/79/11 10/80/10 
f 53/81/31 54/82/32 12/83/12 11/84/11 
f 54/85/32 52/86/30 9/87/9 12/88/12 
f 6/32/6 5/33/5 33/33/22 32/32/22 
f 5/33/5 60/34/38 34/34/22 33/33/22 
f 60/34/38 47/35/25 35/35/22 34/34/22 
f 47/35/25 27/36/20 36/36/22 35/35/22 
f 27/36/20 16/29/16 29/29/22 36/36/22 
f 16/29/16 38/30/24 30/30/22 29/29/22 
f 38/30/24 57/31/35 31/31/22 30/30/22 
f 57/31/35 6/32/6 32/32/22 31/31/22 
f 3/19/3 2/20/2 20/20/17 19/19/17 
f 2/20/2 55/21/33 21/21/17 20/20/17 
f 55/21/33 25/22/18 22/22/17 21/21/17 
f 25/22/18 28/23/21 23/23/17 22/22/17 
f 28/23/21 15/24/15 24/24/17 23/23/17 
f 15/24/15 14/17/14 17/17/17 24/24/17 
f 14/17/14 56/18/34 18/18/17 17/17/17 
f 56/18/34 3/19/3 19/19/17 18/18/17 
f 8/41/8 7/42/7 43/42/17 42/41/17 
f 7/42/7 58/43/36 44/43/17 43/42/17 
f 58/43/36 37/44/23 45/44/17 44/43/17 
f 37/44/23 15/24/15 46/24/17 45/44/17 
f 15/24/15 28/23/21 39/23/17 46/24/17 
f 28/23/21 48/39/26 40/39/17 39/23/17 
f 48/39/26 59/40/37 41/40/17 40/39/17 
f 59/40/37 8/41/8 42/41/17 41/40/17 
# 50 polygons

