# 3ds Max Wavefront OBJ Exporter v0.99 - (c)2007 guruware
# File Created: 21.04.2024 10:17:04

mtllib emergency_light_cylinder.mtl

#
# object Cylinder001
#

v  4.4195 0.0000 3.2110
v  1.6881 0.0000 5.1955
v  -1.6881 0.0000 5.1955
v  -4.4195 0.0000 3.2110
v  -5.4628 0.0000 0.0000
v  -4.4195 0.0000 -3.2110
v  -1.6881 0.0000 -5.1955
v  1.6881 0.0000 -5.1955
v  4.4195 0.0000 -3.2110
v  5.4628 0.0000 0.0000
v  4.0451 2.0256 -2.9389
v  4.0063 2.5316 -2.9108
v  4.9521 2.5316 -0.0000
v  5.0000 2.0256 -0.0000
v  1.5451 2.0256 -4.7553
v  1.5303 2.5316 -4.7097
v  -1.5451 2.0256 -4.7553
v  -1.5303 2.5316 -4.7097
v  -4.0451 2.0256 -2.9389
v  -4.0063 2.5316 -2.9108
v  -5.0000 2.0256 0.0000
v  -4.9521 2.5316 0.0000
v  -4.0451 2.0256 2.9389
v  -4.0063 2.5316 2.9108
v  -1.5451 2.0256 4.7553
v  -1.5303 2.5316 4.7097
v  1.5451 2.0256 4.7553
v  1.5303 2.5316 4.7097
v  4.0451 2.0256 2.9389
v  4.0063 2.5316 2.9108
v  3.2931 11.0000 2.3926
v  4.0705 11.0000 0.0000
v  3.2931 11.0000 -2.3926
v  1.2579 11.0000 -3.8713
v  -1.2579 11.0000 -3.8713
v  -3.2931 11.0000 -2.3926
v  -4.0705 11.0000 0.0000
v  -3.2931 11.0000 2.3926
v  -1.2579 11.0000 3.8713
v  1.2579 11.0000 3.8713
v  4.0451 10.5806 -2.9389
v  4.0451 11.0000 -2.9389
v  5.0000 11.0000 -0.0000
v  5.0000 10.5806 -0.0000
v  3.8584 5.1036 -2.8033
v  4.7693 5.1036 -0.0000
v  5.3745 0.9312 0.0000
v  4.3481 0.9312 -3.1591
v  1.5451 10.5806 -4.7553
v  1.5451 11.0000 -4.7553
v  1.4738 5.1036 -4.5359
v  1.6608 0.9312 -5.1115
v  -1.5451 10.5806 -4.7553
v  -1.5451 11.0000 -4.7553
v  -1.4738 5.1036 -4.5359
v  -1.6608 0.9312 -5.1115
v  -4.0451 10.5806 -2.9389
v  -4.0451 11.0000 -2.9389
v  -3.8584 5.1036 -2.8033
v  -4.3481 0.9312 -3.1591
v  -5.0000 10.5806 0.0000
v  -5.0000 11.0000 0.0000
v  -4.7693 5.1036 0.0000
v  -5.3745 0.9312 0.0000
v  -4.0451 10.5806 2.9389
v  -4.0451 11.0000 2.9389
v  -3.8584 5.1036 2.8033
v  -4.3481 0.9312 3.1591
v  -1.5451 10.5806 4.7553
v  -1.5451 11.0000 4.7553
v  -1.4738 5.1036 4.5359
v  -1.6608 0.9312 5.1115
v  1.5451 10.5806 4.7553
v  1.5451 11.0000 4.7553
v  1.4738 5.1036 4.5359
v  1.6608 0.9312 5.1115
v  4.0451 10.5806 2.9389
v  4.0451 11.0000 2.9389
v  3.8584 5.1036 2.8033
v  4.3481 0.9312 3.1590
v  3.9310 8.4857 -2.8560
v  4.8590 8.4857 -0.0000
v  1.5015 8.4857 -4.6212
v  -1.5015 8.4857 -4.6212
v  -3.9310 8.4857 -2.8560
v  -4.8590 8.4857 0.0000
v  -3.9310 8.4857 2.8560
v  -1.5015 8.4857 4.6212
v  1.5015 8.4857 4.6212
v  3.9310 8.4857 2.8560
# 90 vertices

vn 0.6423 -0.6079 0.4667
vn 0.2454 -0.6080 0.7551
vn -0.2454 -0.6080 0.7551
vn -0.6423 -0.6080 0.4667
vn -0.7940 -0.6079 0.0000
vn -0.6423 -0.6079 -0.4667
vn -0.2454 -0.6080 -0.7551
vn 0.2454 -0.6080 -0.7551
vn 0.6423 -0.6079 -0.4667
vn 0.7940 -0.6080 -0.0000
vn 0.7900 0.2154 -0.5740
vn 0.8062 0.0828 -0.5858
vn 0.9966 0.0828 -0.0000
vn 0.9765 0.2154 -0.0000
vn 0.3018 0.2154 -0.9287
vn 0.3080 0.0828 -0.9478
vn -0.3018 0.2154 -0.9287
vn -0.3080 0.0828 -0.9478
vn -0.7900 0.2154 -0.5740
vn -0.8062 0.0828 -0.5858
vn -0.9765 0.2154 0.0000
vn -0.9966 0.0828 0.0000
vn -0.7900 0.2154 0.5740
vn -0.8062 0.0828 0.5858
vn -0.3018 0.2154 0.9287
vn -0.3080 0.0828 0.9478
vn 0.3018 0.2154 0.9287
vn 0.3080 0.0828 0.9478
vn 0.7900 0.2154 0.5740
vn 0.8062 0.0828 0.5858
vn 0.0000 1.0000 -0.0000
vn 0.8086 -0.0334 -0.5875
vn 0.6191 0.6437 -0.4498
vn 0.7653 0.6437 -0.0000
vn 0.9994 -0.0334 -0.0000
vn 0.8088 0.0224 -0.5876
vn 0.9997 0.0224 0.0000
vn 0.9786 0.2060 -0.0000
vn 0.7917 0.2060 -0.5752
vn 0.3088 -0.0334 -0.9505
vn 0.2365 0.6437 -0.7278
vn 0.3089 0.0224 -0.9508
vn 0.3024 0.2060 -0.9307
vn -0.3088 -0.0334 -0.9505
vn -0.2365 0.6437 -0.7278
vn -0.3089 0.0224 -0.9508
vn -0.3024 0.2060 -0.9307
vn -0.8086 -0.0334 -0.5875
vn -0.6191 0.6438 -0.4498
vn -0.8088 0.0224 -0.5876
vn -0.7917 0.2060 -0.5752
vn -0.9994 -0.0334 0.0000
vn -0.7653 0.6437 -0.0000
vn -0.9997 0.0224 0.0000
vn -0.9786 0.2060 0.0000
vn -0.8086 -0.0334 0.5875
vn -0.6191 0.6437 0.4498
vn -0.8088 0.0224 0.5876
vn -0.7917 0.2060 0.5752
vn -0.3088 -0.0334 0.9505
vn -0.2365 0.6437 0.7278
vn -0.3089 0.0224 0.9508
vn -0.3024 0.2060 0.9307
vn 0.3088 -0.0334 0.9505
vn 0.2365 0.6437 0.7278
vn 0.3089 0.0224 0.9508
vn 0.3024 0.2060 0.9307
vn 0.8086 -0.0334 0.5875
vn 0.6191 0.6437 0.4498
vn 0.8088 0.0224 0.5876
vn 0.7917 0.2060 0.5752
vn 0.8081 -0.0470 -0.5871
vn 0.9989 -0.0470 -0.0000
vn 0.3087 -0.0470 -0.9500
vn -0.3087 -0.0470 -0.9500
vn -0.8081 -0.0470 -0.5871
vn -0.9989 -0.0470 0.0000
vn -0.8081 -0.0470 0.5871
vn -0.3087 -0.0470 0.9500
vn 0.3087 -0.0470 0.9500
vn 0.8081 -0.0470 0.5871
# 81 vertex normals

vt 0.3669 0.7162 0.0000
vt 0.3731 0.8040 0.0000
vt 0.3266 0.8786 0.0000
vt 0.2451 0.9116 0.0000
vt 0.1597 0.8905 0.0000
vt 0.1031 0.8232 0.0000
vt 0.0969 0.7354 0.0000
vt 0.1434 0.6608 0.0000
vt 0.2249 0.6278 0.0000
vt 0.3103 0.6489 0.0000
vt 0.3131 0.2127 0.0000
vt 0.3134 0.2281 0.0000
vt 0.2193 0.2304 0.0000
vt 0.2186 0.2149 0.0000
vt 0.4075 0.2120 0.0000
vt 0.4075 0.2274 0.0000
vt 0.5018 0.2128 0.0000
vt 0.5015 0.2282 0.0000
vt 0.5961 0.2153 0.0000
vt 0.5956 0.2306 0.0000
vt 0.6904 0.2192 0.0000
vt 0.6895 0.2346 0.0000
vt 0.7847 0.2248 0.0000
vt 0.7834 0.2402 0.0000
vt 0.8789 0.2327 0.0000
vt 0.8769 0.2481 0.0000
vt 0.9722 0.2459 0.0000
vt 0.9694 0.2606 0.0000
vt 0.1242 0.2196 0.0000
vt 0.1256 0.2350 0.0000
vt 0.0333 0.2441 0.0000
vt 0.0309 0.2293 0.0000
vt 0.6266 0.7065 0.0000
vt 0.6864 0.6522 0.0000
vt 0.7667 0.6434 0.0000
vt 0.8367 0.6835 0.0000
vt 0.8699 0.7572 0.0000
vt 0.8534 0.8362 0.0000
vt 0.7936 0.8905 0.0000
vt 0.7133 0.8992 0.0000
vt 0.6433 0.8591 0.0000
vt 0.6101 0.7855 0.0000
vt 0.3178 0.4727 0.0000
vt 0.3181 0.4854 0.0000
vt 0.2281 0.4882 0.0000
vt 0.2276 0.4755 0.0000
vt 0.3151 0.3063 0.0000
vt 0.2230 0.3088 0.0000
vt 0.2169 0.1801 0.0000
vt 0.2157 0.1518 0.0000
vt 0.3118 0.1495 0.0000
vt 0.3123 0.1778 0.0000
vt 0.4076 0.4716 0.0000
vt 0.4076 0.4843 0.0000
vt 0.4076 0.3055 0.0000
vt 0.4074 0.1488 0.0000
vt 0.4074 0.1771 0.0000
vt 0.4973 0.4723 0.0000
vt 0.4971 0.4850 0.0000
vt 0.5002 0.3063 0.0000
vt 0.5028 0.1497 0.0000
vt 0.5023 0.1780 0.0000
vt 0.5870 0.4747 0.0000
vt 0.5865 0.4874 0.0000
vt 0.5927 0.3088 0.0000
vt 0.5982 0.1521 0.0000
vt 0.5972 0.1804 0.0000
vt 0.6767 0.4788 0.0000
vt 0.6760 0.4915 0.0000
vt 0.6851 0.3129 0.0000
vt 0.6937 0.1561 0.0000
vt 0.6922 0.1844 0.0000
vt 0.7668 0.4846 0.0000
vt 0.7659 0.4973 0.0000
vt 0.7770 0.3186 0.0000
vt 0.7896 0.1616 0.0000
vt 0.7875 0.1899 0.0000
vt 0.8575 0.4916 0.0000
vt 0.8567 0.5042 0.0000
vt 0.8680 0.3261 0.0000
vt 0.8871 0.1698 0.0000
vt 0.8836 0.1979 0.0000
vt 0.9498 0.4977 0.0000
vt 0.9490 0.5104 0.0000
vt 0.9575 0.3352 0.0000
vt 0.9868 0.1845 0.0000
vt 0.9816 0.2123 0.0000
vt 0.1366 0.4795 0.0000
vt 0.1370 0.4921 0.0000
vt 0.0442 0.4951 0.0000
vt 0.0438 0.4824 0.0000
vt 0.1318 0.3131 0.0000
vt 0.0421 0.3190 0.0000
vt 0.0227 0.1958 0.0000
vt 0.0184 0.1678 0.0000
vt 0.1181 0.1567 0.0000
vt 0.1206 0.1849 0.0000
vt 0.3167 0.4091 0.0000
vt 0.2259 0.4118 0.0000
vt 0.4075 0.4081 0.0000
vt 0.4984 0.4088 0.0000
vt 0.5892 0.4112 0.0000
vt 0.6800 0.4154 0.0000
vt 0.7706 0.4212 0.0000
vt 0.8612 0.4282 0.0000
vt 0.9516 0.4348 0.0000
vt 0.1351 0.4158 0.0000
vt 0.0441 0.4191 0.0000
vt 0.6741 0.6250 0.0000
vt 0.7727 0.6142 0.0000
vt 0.8588 0.6635 0.0000
vt 0.8995 0.7539 0.0000
vt 0.8793 0.8510 0.0000
vt 0.8059 0.9177 0.0000
vt 0.7073 0.9284 0.0000
vt 0.6212 0.8792 0.0000
vt 0.5805 0.7887 0.0000
vt 0.6007 0.6916 0.0000
# 118 texture coords

o Cylinder001
g Cylinder001
usemtl wire_143225087
s 1
f 1/1/1 2/2/2 3/3/3 4/4/4 5/5/5 6/6/6 7/7/7 8/8/8 9/9/9 10/10/10 
s 8
f 11/11/11 12/12/12 13/13/13 14/14/14 
f 15/15/15 16/16/16 12/12/12 11/11/11 
f 17/17/17 18/18/18 16/16/16 15/15/15 
f 19/19/19 20/20/20 18/18/18 17/17/17 
f 21/21/21 22/22/22 20/20/20 19/19/19 
f 23/23/23 24/24/24 22/22/22 21/21/21 
f 25/25/25 26/26/26 24/24/24 23/23/23 
f 27/27/27 28/28/28 26/26/26 25/25/25 
f 29/29/29 30/30/30 28/31/28 27/32/27 
f 14/14/14 13/13/13 30/30/30 29/29/29 
s 1
f 31/33/31 32/34/31 33/35/31 34/36/31 35/37/31 36/38/31 37/39/31 38/40/31 39/41/31 40/42/31 
s 8
f 41/43/32 42/44/33 43/45/34 44/46/35 
f 12/12/12 45/47/36 46/48/37 13/13/13 
f 47/49/38 10/50/10 9/51/9 48/52/39 
f 14/14/14 47/49/38 48/52/39 11/11/11 
f 49/53/40 50/54/41 42/44/33 41/43/32 
f 16/16/16 51/55/42 45/47/36 12/12/12 
f 48/52/39 9/51/9 8/56/8 52/57/43 
f 11/11/11 48/52/39 52/57/43 15/15/15 
f 53/58/44 54/59/45 50/54/41 49/53/40 
f 18/18/18 55/60/46 51/55/42 16/16/16 
f 52/57/43 8/56/8 7/61/7 56/62/47 
f 15/15/15 52/57/43 56/62/47 17/17/17 
f 57/63/48 58/64/49 54/59/45 53/58/44 
f 20/20/20 59/65/50 55/60/46 18/18/18 
f 56/62/47 7/61/7 6/66/6 60/67/51 
f 17/17/17 56/62/47 60/67/51 19/19/19 
f 61/68/52 62/69/53 58/64/49 57/63/48 
f 22/22/22 63/70/54 59/65/50 20/20/20 
f 60/67/51 6/66/6 5/71/5 64/72/55 
f 19/19/19 60/67/51 64/72/55 21/21/21 
f 65/73/56 66/74/57 62/69/53 61/68/52 
f 24/24/24 67/75/58 63/70/54 22/22/22 
f 64/72/55 5/71/5 4/76/4 68/77/59 
f 21/21/21 64/72/55 68/77/59 23/23/23 
f 69/78/60 70/79/61 66/74/57 65/73/56 
f 26/26/26 71/80/62 67/75/58 24/24/24 
f 68/77/59 4/76/4 3/81/3 72/82/63 
f 23/23/23 68/77/59 72/82/63 25/25/25 
f 73/83/64 74/84/65 70/79/61 69/78/60 
f 28/28/28 75/85/66 71/80/62 26/26/26 
f 72/82/63 3/81/3 2/86/2 76/87/67 
f 25/25/25 72/82/63 76/87/67 27/27/27 
f 77/88/68 78/89/69 74/90/65 73/91/64 
f 30/30/30 79/92/70 75/93/66 28/31/28 
f 76/94/67 2/95/2 1/96/1 80/97/71 
f 27/32/27 76/94/67 80/97/71 29/29/29 
f 44/46/35 43/45/34 78/89/69 77/88/68 
f 13/13/13 46/48/37 79/92/70 30/30/30 
f 80/97/71 1/96/1 10/50/10 47/49/38 
f 29/29/29 80/97/71 47/49/38 14/14/14 
f 81/98/72 41/43/32 44/46/35 82/99/73 
f 83/100/74 49/53/40 41/43/32 81/98/72 
f 84/101/75 53/58/44 49/53/40 83/100/74 
f 85/102/76 57/63/48 53/58/44 84/101/75 
f 86/103/77 61/68/52 57/63/48 85/102/76 
f 87/104/78 65/73/56 61/68/52 86/103/77 
f 88/105/79 69/78/60 65/73/56 87/104/78 
f 89/106/80 73/83/64 69/78/60 88/105/79 
f 90/107/81 77/88/68 73/91/64 89/108/80 
f 82/99/73 44/46/35 77/88/68 90/107/81 
f 45/47/36 81/98/72 82/99/73 46/48/37 
f 51/55/42 83/100/74 81/98/72 45/47/36 
f 55/60/46 84/101/75 83/100/74 51/55/42 
f 59/65/50 85/102/76 84/101/75 55/60/46 
f 63/70/54 86/103/77 85/102/76 59/65/50 
f 67/75/58 87/104/78 86/103/77 63/70/54 
f 71/80/62 88/105/79 87/104/78 67/75/58 
f 75/85/66 89/106/80 88/105/79 71/80/62 
f 79/92/70 90/107/81 89/108/80 75/93/66 
f 46/48/37 82/99/73 90/107/81 79/92/70 
s off
f 43/109/34 42/110/33 33/35/31 32/34/31 
f 42/110/33 50/111/41 34/36/31 33/35/31 
f 50/111/41 54/112/45 35/37/31 34/36/31 
f 54/112/45 58/113/49 36/38/31 35/37/31 
f 58/113/49 62/114/53 37/39/31 36/38/31 
f 62/114/53 66/115/57 38/40/31 37/39/31 
f 66/115/57 70/116/61 39/41/31 38/40/31 
f 70/116/61 74/117/65 40/42/31 39/41/31 
f 74/117/65 78/118/69 31/33/31 40/42/31 
f 78/118/69 43/109/34 32/34/31 31/33/31 
# 82 polygons

