# 3ds Max Wavefront OBJ Exporter v0.99 - (c)2007 guruware
# File Created: 30.03.2024 19:38:33

mtllib TicketGate_M.mtl

#
# object Box001
#

v  -30.7528 60.0000 5.4483
v  -30.7528 60.0000 -5.4340
v  -37.6862 60.0000 -5.4340
v  -37.6862 60.0000 5.4483
v  -30.7528 42.8994 50.0000
v  -30.7528 52.1794 50.0000
v  -37.6862 52.1794 50.0000
v  -37.6862 42.8994 50.0000
v  -39.2195 0.0000 -50.0000
v  -39.2195 0.0000 50.0000
v  -39.2195 58.0000 50.0000
v  -39.2195 59.5000 49.5000
v  -39.2195 60.0000 48.0000
v  -39.2195 60.0000 -48.0000
v  -39.2195 59.5000 -49.5000
v  -39.2195 58.0000 -50.0000
v  -37.6862 42.9000 -50.0000
v  -37.6862 52.2000 -50.0000
v  -30.7528 52.2000 -50.0000
v  -30.7528 42.9000 -50.0000
v  -29.2195 0.0000 50.0000
v  -29.2195 0.0000 -50.0000
v  -29.2195 58.0000 -50.0000
v  -29.2195 59.5000 -49.5000
v  -29.2195 60.0000 -48.0000
v  -29.2195 60.0000 48.0000
v  -29.2195 59.5000 49.5000
v  -29.2195 58.0000 50.0000
v  -30.7528 60.0000 48.0000
v  -37.6862 60.0000 48.0000
v  -37.6862 59.5000 49.5000
v  -30.7528 59.5000 49.5000
v  -37.6862 60.0000 -48.0000
v  -30.7528 60.0000 -48.0000
v  -30.7528 59.5000 -49.5000
v  -37.6862 59.5000 -49.5000
v  -37.6862 58.0000 50.0000
v  -30.7528 58.0000 50.0000
v  -30.7528 58.0000 -50.0000
v  -37.6862 58.0000 -50.0000
v  -30.7528 60.0000 -44.9280
v  -30.7528 60.0000 -34.0000
v  -30.7528 60.0000 34.0144
v  -30.7528 60.0000 44.9280
v  -37.6862 60.0000 44.9280
v  -37.6862 60.0000 34.0144
v  -37.6862 60.0000 -34.0000
v  -37.6862 60.0000 -44.9280
v  -30.7528 0.0000 50.0000
v  -37.6862 0.0000 50.0000
v  -37.6862 0.0000 -50.0000
v  -30.7528 0.0000 -50.0000
v  30.7528 60.0000 5.4483
v  37.6862 60.0000 5.4483
v  37.6862 60.0000 -5.4340
v  30.7528 60.0000 -5.4340
v  30.7528 42.8994 50.0000
v  37.6862 42.8994 50.0000
v  37.6862 52.1794 50.0000
v  30.7528 52.1794 50.0000
v  39.2195 0.0000 -50.0000
v  39.2195 58.0000 -50.0000
v  39.2195 59.5000 -49.5000
v  39.2195 60.0000 -48.0000
v  39.2195 60.0000 48.0000
v  39.2195 59.5000 49.5000
v  39.2195 58.0000 50.0000
v  39.2195 0.0000 50.0000
v  37.6862 42.9000 -50.0000
v  30.7528 42.9000 -50.0000
v  30.7528 52.2000 -50.0000
v  37.6862 52.2000 -50.0000
v  29.2195 0.0000 50.0000
v  29.2195 58.0000 50.0000
v  29.2195 59.5000 49.5000
v  29.2195 60.0000 48.0000
v  29.2195 60.0000 -48.0000
v  29.2195 59.5000 -49.5000
v  29.2195 58.0000 -50.0000
v  29.2195 0.0000 -50.0000
v  30.7528 60.0000 48.0000
v  30.7528 59.5000 49.5000
v  37.6862 59.5000 49.5000
v  37.6862 60.0000 48.0000
v  37.6862 60.0000 -48.0000
v  37.6862 59.5000 -49.5000
v  30.7528 59.5000 -49.5000
v  30.7528 60.0000 -48.0000
v  37.6862 58.0000 50.0000
v  30.7528 58.0000 50.0000
v  30.7528 58.0000 -50.0000
v  37.6862 58.0000 -50.0000
v  30.7528 60.0000 44.9280
v  30.7528 60.0000 34.0144
v  30.7528 60.0000 -34.0000
v  30.7528 60.0000 -44.9280
v  37.6862 60.0000 -44.9280
v  37.6862 60.0000 -34.0000
v  37.6862 60.0000 34.0144
v  37.6862 60.0000 44.9280
v  30.7528 0.0000 50.0000
v  37.6862 0.0000 50.0000
v  37.6862 0.0000 -50.0000
v  30.7528 0.0000 -50.0000
# 104 vertices

vn 0.0000 1.0000 -0.0000
vn 0.0000 0.0000 1.0000
vn -0.5774 -0.5774 -0.5774
vn -0.5774 -0.5774 0.5774
vn -0.6728 0.1185 0.7303
vn -0.6189 0.5554 0.5554
vn -0.6728 0.7303 0.1185
vn -0.6728 0.7303 -0.1185
vn -0.6189 0.5554 -0.5554
vn -0.6728 0.1185 -0.7303
vn 0.0000 0.0000 -1.0000
vn 0.5774 -0.5774 0.5774
vn 0.5774 -0.5774 -0.5774
vn 0.6728 0.1185 -0.7303
vn 0.6189 0.5554 -0.5554
vn 0.6728 0.7303 -0.1185
vn 0.6728 0.7303 0.1185
vn 0.6189 0.5554 0.5554
vn 0.6728 0.1185 0.7303
vn 0.0000 0.9871 0.1602
vn 0.0000 0.7071 0.7071
vn 0.0000 0.9871 -0.1602
vn 0.0000 0.7071 -0.7071
vn 0.0000 0.1602 0.9871
vn 0.0000 0.1602 -0.9871
vn 0.0000 -0.7071 0.7071
vn 0.0000 -0.7071 -0.7071
# 27 vertex normals

vt 0.4941 0.6849 0.0000
vt 0.4941 0.7390 0.0000
vt 0.4597 0.7390 0.0000
vt 0.4597 0.6849 0.0000
vt 0.7286 0.3552 0.0000
vt 0.7286 0.4012 0.0000
vt 0.6942 0.4012 0.0000
vt 0.6942 0.3552 0.0000
vt 0.1383 0.9586 0.0000
vt 0.1383 0.4622 0.0000
vt 0.4262 0.4622 0.0000
vt 0.4337 0.4646 0.0000
vt 0.4362 0.4721 0.0000
vt 0.4362 0.9487 0.0000
vt 0.4337 0.9562 0.0000
vt 0.4262 0.9586 0.0000
vt 0.7286 0.4014 0.0000
vt 0.6942 0.4014 0.0000
vt 0.8136 0.4613 0.0000
vt 0.8136 0.9578 0.0000
vt 0.5257 0.9578 0.0000
vt 0.5182 0.9553 0.0000
vt 0.5157 0.9479 0.0000
vt 0.5157 0.4713 0.0000
vt 0.5182 0.4638 0.0000
vt 0.5257 0.4613 0.0000
vt 0.4941 0.4737 0.0000
vt 0.4597 0.4737 0.0000
vt 0.4597 0.4662 0.0000
vt 0.4941 0.4662 0.0000
vt 0.4597 0.9503 0.0000
vt 0.4941 0.9503 0.0000
vt 0.4941 0.9577 0.0000
vt 0.4597 0.9577 0.0000
vt 0.6942 0.4301 0.0000
vt 0.7286 0.4301 0.0000
vt 0.7286 0.4376 0.0000
vt 0.6942 0.4376 0.0000
vt 0.6942 0.4302 0.0000
vt 0.7286 0.4302 0.0000
vt 0.7286 0.4377 0.0000
vt 0.6942 0.4377 0.0000
vt 0.5017 0.4737 0.0000
vt 0.5017 0.9503 0.0000
vt 0.4941 0.9350 0.0000
vt 0.4941 0.8808 0.0000
vt 0.4941 0.5431 0.0000
vt 0.4941 0.4889 0.0000
vt 0.4521 0.9503 0.0000
vt 0.4521 0.4737 0.0000
vt 0.4597 0.4889 0.0000
vt 0.4597 0.5431 0.0000
vt 0.4597 0.8808 0.0000
vt 0.4597 0.9350 0.0000
vt 0.7286 0.1422 0.0000
vt 0.7362 0.1422 0.0000
vt 0.7362 0.4301 0.0000
vt 0.6866 0.4301 0.0000
vt 0.6866 0.1422 0.0000
vt 0.6942 0.1422 0.0000
vt 0.7286 0.1423 0.0000
vt 0.7362 0.1423 0.0000
vt 0.7362 0.4302 0.0000
vt 0.6866 0.4302 0.0000
vt 0.6866 0.1423 0.0000
vt 0.6942 0.1423 0.0000
vt 0.4521 0.4662 0.0000
vt 0.5017 0.4662 0.0000
vt 0.5017 0.9577 0.0000
vt 0.4521 0.9577 0.0000
vt 0.7362 0.4376 0.0000
vt 0.6866 0.4376 0.0000
vt 0.7362 0.4377 0.0000
vt 0.6866 0.4377 0.0000
vt 0.4595 0.6852 0.0000
vt 0.4940 0.6852 0.0000
vt 0.4940 0.7392 0.0000
vt 0.4595 0.7392 0.0000
vt 0.6941 0.3552 0.0000
vt 0.7286 0.4013 0.0000
vt 0.6941 0.4013 0.0000
vt 0.1386 0.9583 0.0000
vt 0.4265 0.9583 0.0000
vt 0.4340 0.9559 0.0000
vt 0.4365 0.9484 0.0000
vt 0.4365 0.4718 0.0000
vt 0.4340 0.4644 0.0000
vt 0.4265 0.4619 0.0000
vt 0.1386 0.4619 0.0000
vt 0.8137 0.9580 0.0000
vt 0.5257 0.9580 0.0000
vt 0.5183 0.9555 0.0000
vt 0.5158 0.9481 0.0000
vt 0.5158 0.4714 0.0000
vt 0.5183 0.4640 0.0000
vt 0.5257 0.4615 0.0000
vt 0.8137 0.4615 0.0000
vt 0.4595 0.4739 0.0000
vt 0.4595 0.4665 0.0000
vt 0.4940 0.4665 0.0000
vt 0.4940 0.4739 0.0000
vt 0.4940 0.9506 0.0000
vt 0.4940 0.9580 0.0000
vt 0.4595 0.9580 0.0000
vt 0.4595 0.9506 0.0000
vt 0.6941 0.4377 0.0000
vt 0.6941 0.4302 0.0000
vt 0.4595 0.4892 0.0000
vt 0.4595 0.5434 0.0000
vt 0.4595 0.8811 0.0000
vt 0.4595 0.9353 0.0000
vt 0.4519 0.9506 0.0000
vt 0.4519 0.4739 0.0000
vt 0.4940 0.9353 0.0000
vt 0.4940 0.8811 0.0000
vt 0.4940 0.5434 0.0000
vt 0.4940 0.4892 0.0000
vt 0.5016 0.4739 0.0000
vt 0.5016 0.9506 0.0000
vt 0.6941 0.1423 0.0000
vt 0.6865 0.4302 0.0000
vt 0.6865 0.1423 0.0000
vt 0.5016 0.4665 0.0000
vt 0.4519 0.4665 0.0000
vt 0.4519 0.9580 0.0000
vt 0.5016 0.9580 0.0000
vt 0.6865 0.4377 0.0000
vt 0.1016 0.9564 0.0000
vt 0.0939 0.9564 0.0000
vt 0.0595 0.9564 0.0000
vt 0.0519 0.9564 0.0000
vt 0.0519 0.4599 0.0000
vt 0.0595 0.4599 0.0000
vt 0.0939 0.4599 0.0000
vt 0.1016 0.4599 0.0000
vt 0.0592 0.9555 0.0000
vt 0.0516 0.9555 0.0000
vt 0.0516 0.4590 0.0000
vt 0.0592 0.4590 0.0000
vt 0.0937 0.4590 0.0000
vt 0.1013 0.4590 0.0000
vt 0.1013 0.9555 0.0000
vt 0.0937 0.9555 0.0000
# 143 texture coords

o Box001
g Box001
usemtl wire_027177148
s 1
f 1/1/1 2/2/1 3/3/1 4/4/1 
s 2
f 5/5/2 6/6/2 7/7/2 8/8/2 
s 4
f 9/9/3 10/10/4 11/11/5 12/12/6 13/13/7 14/14/8 15/15/9 16/16/10 
s 2
f 17/5/11 18/17/11 19/18/11 20/8/11 
s 4
f 21/19/12 22/20/13 23/21/14 24/22/15 25/23/16 26/24/17 27/25/18 28/26/19 
s 1
f 29/27/20 30/28/20 31/29/21 32/30/21 
f 33/31/22 34/32/22 35/33/23 36/34/23 
s 2
f 37/35/24 38/36/24 32/37/21 31/38/21 
f 39/39/25 40/40/25 36/41/23 35/42/23 
s 1
f 29/27/20 26/43/17 25/44/16 34/32/22 41/45/1 42/46/1 2/2/1 1/1/1 43/47/1 44/48/1 
f 33/31/22 14/49/8 13/50/7 30/28/20 45/51/1 46/52/1 4/4/1 3/3/1 47/53/1 48/54/1 
s 2
f 49/55/26 21/56/12 28/57/19 38/36/24 6/6/2 5/5/2 
f 37/35/24 11/58/5 10/59/4 50/60/26 8/8/2 7/7/2 
f 51/61/27 9/62/3 16/63/10 40/40/25 18/17/11 17/5/11 
f 39/39/25 23/64/14 22/65/13 52/66/27 20/8/11 19/18/11 
s 1
f 30/28/20 13/50/7 12/67/6 31/29/21 
f 32/30/21 27/68/18 26/43/17 29/27/20 
f 34/32/22 25/44/16 24/69/15 35/33/23 
f 36/34/23 15/70/9 14/49/8 33/31/22 
s 2
f 38/36/24 28/57/19 27/71/18 32/37/21 
f 31/38/21 12/72/6 11/58/5 37/35/24 
f 40/40/25 16/63/10 15/73/9 36/41/23 
f 35/42/23 24/74/15 23/64/14 39/39/25 
f 6/6/2 38/36/24 37/35/24 7/7/2 
f 8/8/2 50/60/26 49/55/26 5/5/2 
f 18/17/11 40/40/25 39/39/25 19/18/11 
f 20/8/11 52/66/27 51/61/27 17/5/11 
s 1
f 41/45/1 34/32/22 33/31/22 48/54/1 
f 42/46/1 41/45/1 48/54/1 47/53/1 
f 45/51/1 30/28/20 29/27/20 44/48/1 
f 46/52/1 45/51/1 44/48/1 43/47/1 
f 2/2/1 42/46/1 47/53/1 3/3/1 
f 4/4/1 46/52/1 43/47/1 1/1/1 
f 53/75/1 54/76/1 55/77/1 56/78/1 
s 2
f 57/79/2 58/5/2 59/80/2 60/81/2 
s 4
f 61/82/13 62/83/14 63/84/15 64/85/16 65/86/17 66/87/18 67/88/19 68/89/12 
s 2
f 69/8/11 70/5/11 71/17/11 72/18/11 
s 4
f 73/90/4 74/91/5 75/92/6 76/93/7 77/94/8 78/95/9 79/96/10 80/97/3 
s 1
f 81/98/20 82/99/21 83/100/21 84/101/20 
f 85/102/22 86/103/23 87/104/23 88/105/22 
s 2
f 89/40/24 83/41/21 82/106/21 90/107/24 
f 91/40/25 87/41/23 86/42/23 92/39/25 
s 1
f 81/98/20 93/108/1 94/109/1 53/75/1 56/78/1 95/110/1 96/111/1 88/105/22 77/112/8 76/113/7 
f 85/102/22 97/114/1 98/115/1 55/77/1 54/76/1 99/116/1 100/117/1 84/101/20 65/118/17 64/119/16 
s 2
f 101/120/26 57/79/2 60/81/2 90/107/24 74/121/5 73/122/4 
f 89/40/24 59/80/2 58/5/2 102/61/26 68/62/12 67/63/19 
f 103/66/27 69/8/11 72/18/11 92/39/25 62/64/14 61/65/13 
f 91/40/25 71/17/11 70/5/11 104/61/27 80/62/3 79/63/10 
s 1
f 84/101/20 83/100/21 66/123/18 65/118/17 
f 82/99/21 81/98/20 76/113/7 75/124/6 
f 88/105/22 87/104/23 78/125/9 77/112/8 
f 86/103/23 85/102/22 64/119/16 63/126/15 
s 2
f 90/107/24 82/106/21 75/127/6 74/121/5 
f 83/41/21 89/40/24 67/63/19 66/73/18 
f 92/39/25 86/42/23 63/74/15 62/64/14 
f 87/41/23 91/40/25 79/63/10 78/73/9 
f 60/81/2 59/80/2 89/40/24 90/107/24 
f 58/5/2 57/79/2 101/120/26 102/61/26 
f 72/18/11 71/17/11 91/40/25 92/39/25 
f 70/5/11 69/8/11 103/66/27 104/61/27 
s 1
f 96/111/1 97/114/1 85/102/22 88/105/22 
f 95/110/1 98/115/1 97/114/1 96/111/1 
f 100/117/1 93/108/1 81/98/20 84/101/20 
f 99/116/1 94/109/1 93/108/1 100/117/1 
f 56/78/1 55/77/1 98/115/1 95/110/1 
f 54/76/1 53/75/1 94/109/1 99/116/1 
s off
f 21/128/12 49/129/26 50/130/26 10/131/4 9/132/3 51/133/27 52/134/27 22/135/13 
f 101/136/26 73/137/4 80/138/3 104/139/27 103/140/27 61/141/13 68/142/12 102/143/26 
# 68 polygons

#
# object Object001
#

v  -28.8424 10.0000 -1.0725
v  -1.6964 10.0000 -1.0725
v  -1.6964 10.0000 0.9275
v  -28.8424 10.0000 0.9275
v  -28.8424 53.3661 -1.0725
v  -28.8424 53.3661 0.9275
v  -10.9936 53.3661 0.9275
v  -10.9936 53.3661 -1.0725
v  -1.6964 40.9892 0.9275
v  -1.9546 44.7710 0.9275
v  -2.7294 47.8653 0.9275
v  -4.0207 50.2719 0.9275
v  -5.8285 51.9909 0.9275
v  -8.1528 53.0223 0.9275
v  -1.6964 40.9892 -1.0725
v  -8.1528 53.0223 -1.0725
v  -5.8285 51.9909 -1.0725
v  -4.0207 50.2719 -1.0725
v  -2.7294 47.8653 -1.0725
v  -1.9546 44.7710 -1.0725
# 20 vertices

vn -0.5774 -0.5774 -0.5774
vn 0.5774 -0.5774 -0.5774
vn 0.5774 -0.5774 0.5774
vn -0.5774 -0.5774 0.5774
vn -0.5774 0.5774 -0.5774
vn -0.5774 0.5774 0.5774
vn 0.0433 0.7189 0.6938
vn 0.0433 0.7188 -0.6938
vn 0.7142 0.0244 0.6995
vn 0.7170 0.1133 0.6878
vn 0.6835 0.2643 0.6804
vn 0.5880 0.4484 0.6731
vn 0.4120 0.6168 0.6707
vn 0.1961 0.7110 0.6753
vn 0.7142 0.0244 -0.6995
vn 0.1961 0.7111 -0.6752
vn 0.4120 0.6168 -0.6707
vn 0.5880 0.4484 -0.6731
vn 0.6835 0.2643 -0.6804
vn 0.7171 0.1134 -0.6877
# 20 vertex normals

vt 0.1967 0.1785 0.0000
vt 0.0619 0.1785 0.0000
vt 0.0619 0.1685 0.0000
vt 0.1967 0.1685 0.0000
vt 0.0612 0.4192 0.0000
vt 0.0612 0.4093 0.0000
vt 0.1498 0.4093 0.0000
vt 0.1498 0.4192 0.0000
vt 0.0165 0.1858 0.0000
vt 0.0264 0.1858 0.0000
vt 0.0264 0.4011 0.0000
vt 0.0165 0.4011 0.0000
vt 0.2087 0.1872 0.0000
vt 0.3434 0.1872 0.0000
vt 0.3434 0.3410 0.0000
vt 0.3422 0.3598 0.0000
vt 0.3383 0.3752 0.0000
vt 0.3319 0.3871 0.0000
vt 0.3229 0.3956 0.0000
vt 0.3114 0.4008 0.0000
vt 0.2973 0.4025 0.0000
vt 0.2087 0.4025 0.0000
vt 0.0446 0.1865 0.0000
vt 0.0546 0.1865 0.0000
vt 0.0546 0.3403 0.0000
vt 0.0446 0.3403 0.0000
vt 0.1967 0.1864 0.0000
vt 0.0619 0.1864 0.0000
vt 0.0619 0.4017 0.0000
vt 0.1505 0.4017 0.0000
vt 0.1646 0.4000 0.0000
vt 0.1761 0.3949 0.0000
vt 0.1851 0.3863 0.0000
vt 0.1915 0.3744 0.0000
vt 0.1954 0.3590 0.0000
vt 0.1967 0.3402 0.0000
vt 0.1640 0.4093 0.0000
vt 0.1640 0.4192 0.0000
vt 0.1755 0.4093 0.0000
vt 0.1755 0.4192 0.0000
vt 0.1845 0.4093 0.0000
vt 0.1845 0.4192 0.0000
vt 0.0546 0.3591 0.0000
vt 0.0446 0.3591 0.0000
vt 0.0546 0.3745 0.0000
vt 0.0446 0.3745 0.0000
vt 0.0546 0.3864 0.0000
vt 0.0446 0.3864 0.0000
# 48 texture coords

o Object001
g Object001
usemtl wire_027177148
s 1
f 105/144/28 106/145/29 107/146/30 108/147/31 
s 2
f 109/148/32 110/149/33 111/150/34 112/151/35 
s 4
f 105/152/28 108/153/31 110/154/33 109/155/32 
s 8
f 108/156/31 107/157/30 113/158/36 114/159/37 115/160/38 116/161/39 117/162/40 118/163/41 111/164/34 110/165/33 
s 2
f 107/166/30 106/167/29 119/168/42 113/169/36 
s 8
f 106/170/29 105/171/28 109/172/32 112/173/35 120/174/43 121/175/44 122/176/45 123/177/46 124/178/47 119/179/42 
s 2
f 112/151/35 111/150/34 118/180/41 120/181/43 
f 120/181/43 118/180/41 117/182/40 121/183/44 
f 121/183/44 117/182/40 116/184/39 122/185/45 
f 113/169/36 119/168/42 124/186/47 114/187/37 
f 114/187/37 124/186/47 123/188/46 115/189/38 
f 115/189/38 123/188/46 122/190/45 116/191/39 
# 12 polygons

#
# object Object002
#

v  29.2195 10.0000 -1.0000
v  29.2195 10.0000 1.0000
v  2.0735 10.0000 1.0000
v  2.0735 10.0000 -1.0000
v  29.2195 53.3661 -1.0000
v  11.3707 53.3661 -1.0000
v  11.3707 53.3661 1.0000
v  29.2195 53.3661 1.0000
v  8.5298 53.0223 1.0000
v  6.2056 51.9909 1.0000
v  4.3978 50.2719 1.0000
v  3.1065 47.8653 1.0000
v  2.3317 44.7710 1.0000
v  2.0735 40.9892 1.0000
v  2.0735 40.9892 -1.0000
v  2.3317 44.7710 -1.0000
v  3.1065 47.8653 -1.0000
v  4.3978 50.2719 -1.0000
v  6.2056 51.9909 -1.0000
v  8.5298 53.0223 -1.0000
# 20 vertices

vn 0.5774 -0.5774 -0.5774
vn 0.5774 -0.5774 0.5774
vn -0.5774 -0.5774 0.5774
vn -0.5774 -0.5774 -0.5774
vn 0.5774 0.5774 -0.5774
vn -0.0433 0.7189 -0.6938
vn -0.0433 0.7188 0.6938
vn 0.5774 0.5774 0.5774
vn -0.1961 0.7111 0.6752
vn -0.4120 0.6168 0.6707
vn -0.5880 0.4484 0.6731
vn -0.6835 0.2643 0.6804
vn -0.7171 0.1133 0.6877
vn -0.7142 0.0244 0.6995
vn -0.7142 0.0244 -0.6995
vn -0.7171 0.1133 -0.6877
vn -0.6835 0.2643 -0.6804
vn -0.5880 0.4484 -0.6731
vn -0.4120 0.6168 -0.6707
vn -0.1961 0.7110 -0.6753
# 20 vertex normals

vt 0.6369 0.1714 0.0000
vt 0.6369 0.1814 0.0000
vt 0.5021 0.1814 0.0000
vt 0.5021 0.1714 0.0000
vt 0.6357 0.4280 0.0000
vt 0.5471 0.4280 0.0000
vt 0.5471 0.4180 0.0000
vt 0.6357 0.4180 0.0000
vt 0.0269 0.1858 0.0000
vt 0.0269 0.4011 0.0000
vt 0.0169 0.4011 0.0000
vt 0.0169 0.1858 0.0000
vt 0.4900 0.1875 0.0000
vt 0.4900 0.4028 0.0000
vt 0.4014 0.4028 0.0000
vt 0.3873 0.4011 0.0000
vt 0.3758 0.3960 0.0000
vt 0.3668 0.3874 0.0000
vt 0.3604 0.3755 0.0000
vt 0.3565 0.3601 0.0000
vt 0.3553 0.3414 0.0000
vt 0.3553 0.1875 0.0000
vt 0.6550 0.1863 0.0000
vt 0.6550 0.3402 0.0000
vt 0.6450 0.3402 0.0000
vt 0.6450 0.1863 0.0000
vt 0.5014 0.1880 0.0000
vt 0.5014 0.3419 0.0000
vt 0.5027 0.3607 0.0000
vt 0.5066 0.3760 0.0000
vt 0.5130 0.3880 0.0000
vt 0.5219 0.3965 0.0000
vt 0.5335 0.4016 0.0000
vt 0.5476 0.4033 0.0000
vt 0.6362 0.4033 0.0000
vt 0.6362 0.1880 0.0000
vt 0.5330 0.4280 0.0000
vt 0.5330 0.4180 0.0000
vt 0.5214 0.4280 0.0000
vt 0.5214 0.4180 0.0000
vt 0.5125 0.4280 0.0000
vt 0.5125 0.4180 0.0000
vt 0.6550 0.3590 0.0000
vt 0.6450 0.3590 0.0000
vt 0.6550 0.3743 0.0000
vt 0.6450 0.3743 0.0000
vt 0.6550 0.3863 0.0000
vt 0.6450 0.3863 0.0000
# 48 texture coords

o Object002
g Object002
usemtl wire_027177148
s 1
f 125/192/48 126/193/49 127/194/50 128/195/51 
s 2
f 129/196/52 130/197/53 131/198/54 132/199/55 
s 4
f 125/200/48 129/201/52 132/202/55 126/203/49 
s 8
f 126/204/49 132/205/55 131/206/54 133/207/56 134/208/57 135/209/58 136/210/59 137/211/60 138/212/61 127/213/50 
s 2
f 127/214/50 138/215/61 139/216/62 128/217/51 
s 8
f 128/218/51 139/219/62 140/220/63 141/221/64 142/222/65 143/223/66 144/224/67 130/225/53 129/226/52 125/227/48 
s 2
f 130/197/53 144/228/67 133/229/56 131/198/54 
f 144/228/67 143/230/66 134/231/57 133/229/56 
f 143/230/66 142/232/65 135/233/58 134/231/57 
f 138/215/61 137/234/60 140/235/63 139/216/62 
f 137/234/60 136/236/59 141/237/64 140/235/63 
f 136/236/59 135/238/58 142/239/65 141/237/64 
# 12 polygons

