# 3ds Max Wavefront OBJ Exporter v0.99 - (c)2007 guruware
# File Created: 03.04.2024 03:16:46

mtllib PhotoFrame_M.mtl

#
# object Box002
#

v  -25.0000 0.0000 -0.0000
v  -25.0000 72.7000 0.0000
v  25.0000 72.7000 0.0000
v  25.0000 0.0000 -0.0000
v  -24.0000 1.0000 2.0000
v  24.0000 1.0000 2.0000
v  24.0000 71.7000 2.0000
v  -24.0000 71.7000 2.0000
v  25.0000 0.0000 2.0000
v  -25.0000 0.0000 2.0000
v  25.0000 72.7000 2.0000
v  -25.0000 72.7000 2.0000
# 12 vertices

vn -0.5774 -0.5774 -0.5774
vn -0.5774 0.5774 -0.5774
vn 0.5774 0.5774 -0.5774
vn 0.5774 -0.5774 -0.5774
vn 0.0000 -0.0000 1.0000
vn 0.5774 -0.5774 0.5774
vn -0.5774 -0.5774 0.5774
vn 0.5774 0.5774 0.5774
vn -0.5774 0.5774 0.5774
# 9 vertex normals

vt 0.0091 0.7405 0.0000
vt 0.0091 0.0413 0.0000
vt 0.4900 0.0413 0.0000
vt 0.4900 0.7405 0.0000
vt 0.5114 0.0412 0.0000
vt 0.9895 0.0412 0.0000
vt 0.9895 0.7455 0.0000
vt 0.5114 0.7455 0.0000
vt 0.4970 0.7826 0.0000
vt 0.9951 0.7826 0.0000
vt 0.9951 0.8026 0.0000
vt 0.4970 0.8026 0.0000
vt 0.9971 0.7806 0.0000
vt 0.2729 0.7806 0.0000
vt 0.2729 0.7607 0.0000
vt 0.9971 0.7607 0.0000
vt 0.4970 0.8046 0.0000
vt 0.9951 0.8046 0.0000
vt 0.9951 0.8245 0.0000
vt 0.4970 0.8245 0.0000
vt 0.0049 0.0005 0.0000
vt 0.7291 0.0005 0.0000
vt 0.7291 0.0204 0.0000
vt 0.0049 0.0204 0.0000
vt 0.8588 0.8926 0.0000
vt 0.3608 0.8926 0.0000
vt 0.3707 0.8826 0.0000
vt 0.8489 0.8826 0.0000
vt 0.9714 0.9231 0.0000
vt 0.2472 0.9231 0.0000
vt 0.2571 0.9131 0.0000
vt 0.9614 0.9131 0.0000
vt 0.8590 0.8926 0.0000
vt 0.3609 0.8926 0.0000
vt 0.3709 0.8827 0.0000
vt 0.8491 0.8827 0.0000
vt 0.2472 0.9232 0.0000
vt 0.9714 0.9232 0.0000
vt 0.9614 0.9132 0.0000
vt 0.2571 0.9132 0.0000
# 40 texture coords

o Box002
g Box002
usemtl wire_135110008
s 2
f 1/1/1 2/2/2 3/3/3 4/4/4 
s 4
f 5/5/5 6/6/5 7/7/5 8/8/5 
s 8
f 1/9/1 4/10/4 9/11/6 10/12/7 
s 16
f 4/13/4 3/14/3 11/15/8 9/16/6 
s 32
f 3/17/3 2/18/2 12/19/9 11/20/8 
s 64
f 2/21/2 1/22/1 10/23/7 12/24/9 
s off
f 10/25/7 9/26/6 6/27/5 5/28/5 
f 9/29/6 11/30/8 7/31/5 6/32/5 
f 11/33/8 12/34/9 8/35/5 7/36/5 
f 12/37/9 10/38/7 5/39/5 8/40/5 
# 10 polygons

