# 3ds Max Wavefront OBJ Exporter v0.99 - (c)2007 guruware
# File Created: 14.04.2024 21:10:19

mtllib 04.mtl

#
# object Cylinder002
#

v  0.1796 0.1220 -6.0000
v  -0.1796 0.1220 -6.0000
v  -0.3591 0.4330 -6.0000
v  -0.1796 0.7440 -6.0000
v  0.1796 0.7440 -6.0000
v  0.3591 0.4330 -6.0000
v  0.5000 0.4330 -6.0000
v  0.2500 0.8660 -6.0000
v  0.2500 0.8660 6.0000
v  0.5000 0.4330 6.0000
v  -0.2500 0.8660 -6.0000
v  -0.2500 0.8660 6.0000
v  -0.5000 0.4330 -6.0000
v  -0.5000 0.4330 6.0000
v  -0.2500 0.0000 -6.0000
v  -0.2500 -0.0000 6.0000
v  0.2500 0.0000 -6.0000
v  0.2500 -0.0000 6.0000
v  0.0549 0.3379 7.6487
v  0.1098 0.4330 7.6487
v  0.0549 0.5281 7.6487
v  -0.0549 0.5281 7.6487
v  -0.1098 0.4330 7.6487
v  -0.0549 0.3379 7.6487
v  0.0898 0.5885 7.3154
v  0.1795 0.4330 7.3154
v  -0.0898 0.5885 7.3154
v  -0.1795 0.4330 7.3154
v  -0.0898 0.2776 7.3154
v  0.0898 0.2776 7.3154
# 30 vertices

vn 0.0000 0.0000 -1.0000
vn 0.7924 0.0000 -0.6100
vn 0.3962 0.6862 -0.6100
vn 0.4967 0.8603 0.1150
vn 0.9934 -0.0000 0.1150
vn -0.3962 0.6862 -0.6100
vn -0.4967 0.8603 0.1150
vn -0.7924 0.0000 -0.6100
vn -0.9934 -0.0000 0.1150
vn -0.3962 -0.6862 -0.6100
vn -0.4967 -0.8603 0.1150
vn 0.3962 -0.6862 -0.6100
vn 0.4967 -0.8603 0.1150
vn 0.3637 -0.6299 0.6863
vn 0.7273 -0.0000 0.6863
vn 0.3637 0.6299 0.6863
vn -0.3637 0.6299 0.6863
vn -0.7273 -0.0000 0.6863
vn -0.3637 -0.6299 0.6863
vn 0.4875 0.8444 0.2219
vn 0.9751 -0.0000 0.2219
vn -0.4875 0.8444 0.2219
vn -0.9751 -0.0000 0.2219
vn -0.4875 -0.8444 0.2219
vn 0.4875 -0.8444 0.2219
# 25 vertex normals

vt 0.4416 0.3045 0.0000
vt 0.4156 0.3045 0.0000
vt 0.4026 0.2821 0.0000
vt 0.4156 0.2596 0.0000
vt 0.4416 0.2596 0.0000
vt 0.4545 0.2821 0.0000
vt 0.2055 0.0150 0.0000
vt 0.2362 0.0150 0.0000
vt 0.2362 0.8678 0.0000
vt 0.2055 0.8678 0.0000
vt 0.2551 0.0131 0.0000
vt 0.2905 0.0131 0.0000
vt 0.2905 0.8637 0.0000
vt 0.2551 0.8637 0.0000
vt 0.0489 0.0150 0.0000
vt 0.0797 0.0150 0.0000
vt 0.0797 0.8678 0.0000
vt 0.0489 0.8678 0.0000
vt 0.1105 0.0150 0.0000
vt 0.1105 0.8678 0.0000
vt 0.1271 0.0153 0.0000
vt 0.1627 0.0153 0.0000
vt 0.1627 0.8693 0.0000
vt 0.1271 0.8693 0.0000
vt 0.1747 0.0150 0.0000
vt 0.1747 0.8678 0.0000
vt 0.4062 0.3178 0.0000
vt 0.4062 0.3257 0.0000
vt 0.3993 0.3297 0.0000
vt 0.3924 0.3257 0.0000
vt 0.3924 0.3178 0.0000
vt 0.3993 0.3138 0.0000
vt 0.2165 0.9613 0.0000
vt 0.2055 0.9613 0.0000
vt 0.2792 0.9569 0.0000
vt 0.2664 0.9569 0.0000
vt 0.0797 0.9613 0.0000
vt 0.0687 0.9613 0.0000
vt 0.0907 0.9613 0.0000
vt 0.1503 0.9629 0.0000
vt 0.1375 0.9629 0.0000
vt 0.1944 0.9613 0.0000
vt 0.4467 0.2507 0.0000
vt 0.4647 0.2821 0.0000
vt 0.4467 0.3134 0.0000
vt 0.4105 0.3134 0.0000
vt 0.3924 0.2821 0.0000
vt 0.4105 0.2507 0.0000
vt 0.2122 0.9850 0.0000
vt 0.2055 0.9850 0.0000
vt 0.2767 0.9806 0.0000
vt 0.2689 0.9806 0.0000
vt 0.0797 0.9850 0.0000
vt 0.0729 0.9850 0.0000
vt 0.0865 0.9850 0.0000
vt 0.1478 0.9866 0.0000
vt 0.1400 0.9866 0.0000
vt 0.1987 0.9850 0.0000
# 58 texture coords

o Cylinder002
g Cylinder002
usemtl wire_113135006
s 1
f 1/1/1 2/2/1 3/3/1 4/4/1 5/5/1 6/6/1 
s 2
f 7/7/2 8/8/3 9/9/4 10/10/5 
s 4
f 8/11/3 11/12/6 12/13/7 9/14/4 
s 2
f 11/15/6 13/16/8 14/17/9 12/18/7 
s 4
f 13/16/8 15/19/10 16/20/11 14/17/9 
s 2
f 15/21/10 17/22/12 18/23/13 16/24/11 
s 4
f 17/25/12 7/7/2 10/10/5 18/26/13 
s 1
f 19/27/14 20/28/15 21/29/16 22/30/17 23/31/18 24/32/19 
s 2
f 10/10/5 9/9/4 25/33/20 26/34/21 
s 4
f 9/14/4 12/13/7 27/35/22 25/36/20 
s 2
f 12/18/7 14/17/9 28/37/23 27/38/22 
s 4
f 14/17/9 16/20/11 29/39/24 28/37/23 
s 2
f 16/24/11 18/23/13 30/40/25 29/41/24 
s 4
f 18/26/13 10/10/5 26/34/21 30/42/25 
s 1
f 8/43/3 7/44/2 6/6/1 5/5/1 
f 7/44/2 17/45/12 1/1/1 6/6/1 
f 17/45/12 15/46/10 2/2/1 1/1/1 
f 15/46/10 13/47/8 3/3/1 2/2/1 
f 13/47/8 11/48/6 4/4/1 3/3/1 
f 11/48/6 8/43/3 5/5/1 4/4/1 
s off
f 26/34/21 25/33/20 21/49/16 20/50/15 
f 25/36/20 27/35/22 22/51/17 21/52/16 
f 27/38/22 28/37/23 23/53/18 22/54/17 
f 28/37/23 29/39/24 24/55/19 23/53/18 
f 29/41/24 30/40/25 19/56/14 24/57/19 
f 30/42/25 26/34/21 20/50/15 19/58/14 
# 26 polygons

