# 3ds Max Wavefront OBJ Exporter v0.99 - (c)2007 guruware
# File Created: 08.04.2024 01:45:13

mtllib box.mtl

#
# object Box001
#

v  -7.4800 0.0000 -20.5000
v  -2.5200 0.0000 -20.5000
v  -2.5200 0.0000 20.5000
v  -7.4800 0.0000 20.5000
v  -7.4800 28.0000 20.5000
v  -2.5200 28.0000 20.5000
v  -2.5200 28.0000 -20.5000
v  -7.4800 28.0000 -20.5000
v  -2.5200 5.1000 20.5000
v  -7.4800 5.1000 20.5000
v  10.5000 0.0000 20.5000
v  10.5000 0.0000 -20.5000
v  10.5000 5.1000 -20.5000
v  10.5000 5.1000 20.5000
v  -7.4800 5.1000 -20.5000
v  -2.5200 5.1000 -20.5000
v  -20.5000 0.0000 -20.5000
v  -20.5000 0.0000 20.5000
v  -20.5000 5.1000 20.5000
v  -20.5000 5.1000 -20.5000
v  10.5000 28.0000 20.5000
v  10.5000 28.0000 -20.5000
v  -20.5000 28.0000 -20.5000
v  -20.5000 28.0000 20.5000
v  -20.5000 22.8901 20.5000
v  -7.4800 22.8901 20.5000
v  10.5000 22.8901 -20.5000
v  -2.5200 22.8901 -20.5000
v  -2.5200 22.8901 20.5000
v  10.5000 22.8901 20.5000
v  -7.4800 22.8901 -20.5000
v  -20.5000 22.8901 -20.5000
# 32 vertices

vn 0.0000 -0.7071 -0.7071
vn 0.0000 -0.7071 0.7071
vn 0.0000 0.7071 0.7071
vn 0.0000 0.7071 -0.7071
vn 0.0000 0.0000 1.0000
vn 0.5774 -0.5774 0.5774
vn 0.5774 -0.5774 -0.5774
vn 0.7071 0.0000 -0.7071
vn 0.7071 0.0000 0.7071
vn 0.0000 0.0000 -1.0000
vn -0.5774 -0.5774 -0.5774
vn -0.5774 -0.5774 0.5774
vn -0.7071 0.0000 0.7071
vn -0.7071 0.0000 -0.7071
vn 0.5774 0.5774 0.5774
vn 0.5774 0.5774 -0.5774
vn -0.5774 0.5774 -0.5774
vn -0.5774 0.5774 0.5774
# 18 vertex normals

vt 0.1602 0.3828 0.0000
vt 0.1974 0.3828 0.0000
vt 0.1971 0.6901 0.0000
vt 0.1600 0.6901 0.0000
vt 0.6171 0.3812 0.0000
vt 0.6543 0.3812 0.0000
vt 0.6543 0.6885 0.0000
vt 0.6171 0.6885 0.0000
vt 0.6157 0.1605 0.0000
vt 0.6529 0.1605 0.0000
vt 0.6529 0.1988 0.0000
vt 0.6157 0.1987 0.0000
vt 0.9678 0.3823 0.0000
vt 0.9672 0.6896 0.0000
vt 0.9290 0.6895 0.0000
vt 0.9296 0.3822 0.0000
vt 0.6551 0.9030 0.0000
vt 0.6179 0.9029 0.0000
vt 0.6180 0.8647 0.0000
vt 0.6552 0.8648 0.0000
vt 0.3018 0.6898 0.0000
vt 0.3018 0.3825 0.0000
vt 0.3401 0.3825 0.0000
vt 0.3400 0.6898 0.0000
vt 0.2950 0.3829 0.0000
vt 0.2947 0.6902 0.0000
vt 0.0624 0.6900 0.0000
vt 0.0626 0.3827 0.0000
vt 0.7519 0.3812 0.0000
vt 0.7519 0.6885 0.0000
vt 0.5195 0.6885 0.0000
vt 0.5195 0.3812 0.0000
vt 0.7505 0.1606 0.0000
vt 0.7505 0.1989 0.0000
vt 0.6155 0.3704 0.0000
vt 0.5180 0.3703 0.0000
vt 0.5180 0.3320 0.0000
vt 0.6156 0.3321 0.0000
vt 0.5203 0.9027 0.0000
vt 0.5204 0.8645 0.0000
vt 0.6556 0.6932 0.0000
vt 0.7532 0.6934 0.0000
vt 0.7531 0.7317 0.0000
vt 0.6555 0.7315 0.0000
vt 0.6528 0.3321 0.0000
vt 0.6527 0.3704 0.0000
vt 0.7957 0.6893 0.0000
vt 0.7574 0.6892 0.0000
vt 0.7579 0.3819 0.0000
vt 0.7962 0.3819 0.0000
vt 0.6183 0.7314 0.0000
vt 0.6184 0.6931 0.0000
vt 0.4734 0.3825 0.0000
vt 0.5117 0.3825 0.0000
vt 0.5117 0.6898 0.0000
vt 0.4734 0.6898 0.0000
vt 0.7504 0.3322 0.0000
vt 0.7503 0.3705 0.0000
vt 0.5181 0.1987 0.0000
vt 0.5207 0.7311 0.0000
vt 0.5208 0.6928 0.0000
vt 0.7527 0.8650 0.0000
vt 0.5181 0.1604 0.0000
vt 0.7527 0.9033 0.0000
# 64 texture coords

o Box001
g Box001
usemtl wire_184155229
s 2
f 1/1/1 2/2/1 3/3/2 4/4/2 
s 4
f 5/5/3 6/6/3 7/7/4 8/8/4 
s 8
f 4/9/2 3/10/2 9/11/5 10/12/5 
s 16
f 11/13/6 12/14/7 13/15/8 14/16/9 
s 32
f 2/17/1 1/18/1 15/19/10 16/20/10 
s 64
f 17/21/11 18/22/12 19/23/13 20/24/14 
s 2
f 2/2/1 12/25/7 11/26/6 3/3/2 
f 4/4/2 18/27/12 17/28/11 1/1/1 
s 4
f 6/6/3 21/29/15 22/30/16 7/7/4 
f 8/8/4 23/31/17 24/32/18 5/5/3 
s 8
f 3/10/2 11/33/6 14/34/9 9/11/5 
f 5/35/3 24/36/18 25/37/13 26/38/5 
s 32
f 1/18/1 17/39/11 20/40/14 15/19/10 
f 7/41/4 22/42/16 27/43/8 28/44/10 
s 8
f 29/45/5 6/46/3 5/35/3 26/38/5 
s 16
f 27/47/8 22/48/16 21/49/15 30/50/9 
s 32
f 31/51/10 8/52/4 7/41/4 28/44/10 
s 64
f 25/53/13 24/54/18 23/55/17 32/56/14 
s 8
f 30/57/9 21/58/15 6/46/3 29/45/5 
f 25/37/13 19/59/13 10/12/5 26/38/5 
s 32
f 32/60/14 23/61/17 8/52/4 31/51/10 
f 27/43/8 13/62/8 16/20/10 28/44/10 
s 8
f 9/11/5 29/45/5 26/38/5 10/12/5 
s 16
f 13/15/8 27/47/8 30/50/9 14/16/9 
s 32
f 15/19/10 31/51/10 28/44/10 16/20/10 
s 64
f 19/23/13 25/53/13 32/56/14 20/24/14 
s 8
f 14/34/9 30/57/9 29/45/5 9/11/5 
s 32
f 20/40/14 32/60/14 31/51/10 15/19/10 
s 8
f 19/59/13 18/63/12 4/9/2 10/12/5 
s 32
f 13/62/8 12/64/7 2/17/1 16/20/10 
# 30 polygons

