# 3ds Max Wavefront OBJ Exporter v0.99 - (c)2007 guruware
# File Created: 16.04.2024 21:50:00

mtllib subwayboard.mtl

#
# object Box001
#

v  -10.8228 31.0000 1.0000
v  -12.6504 31.2611 1.0000
v  -13.9557 32.0443 1.0000
v  -14.7389 33.3496 1.0000
v  -15.0000 35.1772 1.0000
v  -15.0000 36.8228 1.0000
v  -14.7389 38.6504 1.0000
v  -13.9557 39.9557 1.0000
v  -12.6504 40.7389 1.0000
v  -10.8228 41.0000 1.0000
v  10.8228 41.0000 1.0000
v  12.6504 40.7389 1.0000
v  13.9557 39.9557 1.0000
v  14.7389 38.6504 1.0000
v  15.0000 36.8228 1.0000
v  15.0000 35.1772 1.0000
v  14.7389 33.3496 1.0000
v  13.9557 32.0443 1.0000
v  12.6504 31.2611 1.0000
v  10.8228 31.0000 1.0000
v  -14.5000 35.2127 1.5496
v  -14.2582 33.5203 1.5496
v  -13.5913 32.4087 1.5496
v  -12.4797 31.7418 1.5496
v  -10.7873 31.5000 1.5496
v  10.7873 31.5000 1.5496
v  12.4797 31.7418 1.5496
v  13.5913 32.4087 1.5496
v  14.2582 33.5203 1.5496
v  14.5000 35.2127 1.5496
v  14.5000 36.7873 1.5496
v  14.2582 38.4797 1.5496
v  13.5913 39.5913 1.5496
v  12.4797 40.2582 1.5496
v  10.7873 40.5000 1.5496
v  -10.7873 40.5000 1.5496
v  -12.4797 40.2582 1.5496
v  -13.5913 39.5913 1.5496
v  -14.2582 38.4797 1.5496
v  -14.5000 36.7873 1.5496
v  10.8228 31.0000 2.0000
v  -10.8228 31.0000 2.0000
v  15.0000 36.8228 2.0000
v  15.0000 35.1772 2.0000
v  -10.8228 41.0000 2.0000
v  10.8228 41.0000 2.0000
v  -15.0000 35.1772 2.0000
v  -15.0000 36.8228 2.0000
v  12.6504 31.2611 2.0000
v  13.9557 32.0443 2.0000
v  -12.6504 31.2611 2.0000
v  -13.9557 32.0443 2.0000
v  14.7389 38.6504 2.0000
v  13.9557 39.9557 2.0000
v  14.7389 33.3496 2.0000
v  -12.6504 40.7389 2.0000
v  -13.9557 39.9557 2.0000
v  12.6504 40.7389 2.0000
v  -14.7389 33.3496 2.0000
v  -14.7389 38.6504 2.0000
v  -14.2582 33.5203 2.0000
v  -14.5000 35.2127 2.0000
v  -13.5913 32.4087 2.0000
v  -12.4797 31.7418 2.0000
v  -10.7873 31.5000 2.0000
v  10.7873 31.5000 2.0000
v  12.4797 31.7418 2.0000
v  13.5913 32.4087 2.0000
v  14.2582 33.5203 2.0000
v  14.5000 35.2127 2.0000
v  14.5000 36.7873 2.0000
v  14.2582 38.4797 2.0000
v  13.5913 39.5913 2.0000
v  12.4797 40.2582 2.0000
v  10.7873 40.5000 2.0000
v  -10.7873 40.5000 2.0000
v  -12.4797 40.2582 2.0000
v  -13.5913 39.5913 2.0000
v  -14.2582 38.4797 2.0000
v  -14.5000 36.7873 2.0000
v  10.0000 0.0000 1.0000
v  10.0000 0.0000 -1.0000
v  12.0000 0.0000 -1.0000
v  12.0000 0.0000 1.0000
v  10.0000 40.0000 1.0000
v  12.0000 40.0000 1.0000
v  12.0000 40.0000 -1.0000
v  10.0000 40.0000 -1.0000
v  12.0000 38.0000 1.0000
v  10.0000 38.0000 1.0000
v  12.0000 38.0000 -1.0000
v  10.0000 38.0000 -1.0000
v  -10.0000 38.0000 1.0000
v  -10.0000 38.0000 -1.0000
v  -10.0000 0.0000 1.0000
v  -12.0000 0.0000 1.0000
v  -12.0000 0.0000 -1.0000
v  -10.0000 0.0000 -1.0000
v  -10.0000 40.0000 1.0000
v  -10.0000 40.0000 -1.0000
v  -12.0000 40.0000 -1.0000
v  -12.0000 40.0000 1.0000
v  -12.0000 38.0000 1.0000
v  -12.0000 38.0000 -1.0000
# 104 vertices

vn -0.0512 -0.7206 -0.6915
vn -0.2498 -0.7037 -0.6651
vn -0.5335 -0.5335 -0.6564
vn -0.7037 -0.2498 -0.6651
vn -0.7206 -0.0512 -0.6915
vn -0.7206 0.0512 -0.6915
vn -0.7037 0.2498 -0.6651
vn -0.5335 0.5335 -0.6564
vn -0.2498 0.7037 -0.6651
vn -0.0512 0.7206 -0.6915
vn 0.0512 0.7206 -0.6915
vn 0.2498 0.7037 -0.6651
vn 0.5335 0.5335 -0.6564
vn 0.7037 0.2498 -0.6651
vn 0.7206 0.0512 -0.6915
vn 0.7206 -0.0512 -0.6915
vn 0.7037 -0.2498 -0.6651
vn 0.5335 -0.5335 -0.6564
vn 0.2498 -0.7037 -0.6651
vn 0.0512 -0.7206 -0.6915
vn 0.7206 0.0512 0.6915
vn 0.7036 0.2498 0.6652
vn 0.5334 0.5335 0.6564
vn 0.2498 0.7037 0.6651
vn 0.0512 0.7206 0.6915
vn -0.0512 0.7206 0.6915
vn -0.2498 0.7037 0.6651
vn -0.5334 0.5335 0.6564
vn -0.7036 0.2498 0.6652
vn -0.7206 0.0512 0.6915
vn -0.7206 -0.0512 0.6915
vn -0.7036 -0.2498 0.6652
vn -0.5335 -0.5335 0.6563
vn -0.2498 -0.7037 0.6651
vn -0.0512 -0.7206 0.6915
vn 0.0512 -0.7206 0.6915
vn 0.2498 -0.7037 0.6651
vn 0.5335 -0.5335 0.6563
vn 0.7036 -0.2498 0.6652
vn 0.7206 -0.0512 0.6915
vn 0.5335 -0.5335 0.6564
vn -0.5335 -0.5335 0.6564
vn 0.7037 0.2498 0.6651
vn 0.5335 0.5335 0.6564
vn 0.7037 -0.2498 0.6651
vn -0.5335 0.5335 0.6564
vn -0.7037 -0.2498 0.6651
vn -0.7037 0.2498 0.6651
vn 0.6185 0.2196 0.7545
vn 0.6887 0.0489 0.7234
vn 0.4545 0.4546 0.7660
vn 0.2196 0.6185 0.7545
vn 0.0489 0.6887 0.7234
vn -0.0489 0.6887 0.7234
vn -0.2196 0.6185 0.7545
vn -0.4545 0.4546 0.7660
vn -0.6185 0.2196 0.7545
vn -0.6887 0.0489 0.7234
vn -0.6887 -0.0489 0.7234
vn -0.6185 -0.2196 0.7545
vn -0.4545 -0.4546 0.7660
vn -0.2196 -0.6185 0.7545
vn -0.0489 -0.6887 0.7234
vn 0.0489 -0.6887 0.7234
vn 0.2196 -0.6185 0.7545
vn 0.4545 -0.4546 0.7660
vn 0.6185 -0.2196 0.7545
vn 0.6887 -0.0489 0.7234
vn -0.5774 -0.5774 0.5774
vn -0.5774 -0.5774 -0.5774
vn 0.5774 -0.5774 -0.5774
vn 0.5774 -0.5774 0.5774
vn 0.0000 0.7071 0.7071
vn 0.5774 0.5774 0.5774
vn 0.5774 0.5774 -0.5774
vn 0.0000 0.7071 -0.7071
vn 0.7071 -0.0000 0.7071
vn -0.3015 -0.3015 0.9045
vn 0.7071 -0.0000 -0.7071
vn -0.3015 -0.3015 -0.9045
vn 0.3015 -0.3015 0.9045
vn 0.3015 -0.3015 -0.9045
vn -0.5774 0.5774 -0.5774
vn -0.5774 0.5774 0.5774
vn -0.7071 -0.0000 0.7071
vn -0.7071 -0.0000 -0.7071
# 86 vertex normals

vt 0.5991 0.8328 0.0000
vt 0.5777 0.8297 0.0000
vt 0.5623 0.8205 0.0000
vt 0.5531 0.8052 0.0000
vt 0.5501 0.7837 0.0000
vt 0.5501 0.7644 0.0000
vt 0.5531 0.7429 0.0000
vt 0.5623 0.7276 0.0000
vt 0.5777 0.7184 0.0000
vt 0.5991 0.7154 0.0000
vt 0.8532 0.7154 0.0000
vt 0.8747 0.7184 0.0000
vt 0.8900 0.7276 0.0000
vt 0.8992 0.7429 0.0000
vt 0.9023 0.7644 0.0000
vt 0.9023 0.7837 0.0000
vt 0.8992 0.8052 0.0000
vt 0.8900 0.8205 0.0000
vt 0.8747 0.8297 0.0000
vt 0.8532 0.8328 0.0000
vt 0.5829 0.1201 0.0000
vt 0.5781 0.1535 0.0000
vt 0.5650 0.1754 0.0000
vt 0.5430 0.1886 0.0000
vt 0.5097 0.1933 0.0000
vt 0.0842 0.1933 0.0000
vt 0.0508 0.1886 0.0000
vt 0.0289 0.1754 0.0000
vt 0.0157 0.1535 0.0000
vt 0.0110 0.1201 0.0000
vt 0.0110 0.0891 0.0000
vt 0.0157 0.0557 0.0000
vt 0.0289 0.0338 0.0000
vt 0.0508 0.0206 0.0000
vt 0.0842 0.0158 0.0000
vt 0.5097 0.0158 0.0000
vt 0.5430 0.0206 0.0000
vt 0.5650 0.0338 0.0000
vt 0.5781 0.0557 0.0000
vt 0.5829 0.0891 0.0000
vt 0.8204 0.6298 0.0000
vt 0.5952 0.6298 0.0000
vt 0.5952 0.6194 0.0000
vt 0.8204 0.6194 0.0000
vt 0.8663 0.6285 0.0000
vt 0.8663 0.6425 0.0000
vt 0.8577 0.6425 0.0000
vt 0.8577 0.6285 0.0000
vt 0.5952 0.6081 0.0000
vt 0.8204 0.6081 0.0000
vt 0.8204 0.6185 0.0000
vt 0.5952 0.6185 0.0000
vt 0.8749 0.6285 0.0000
vt 0.8749 0.6425 0.0000
vt 0.8664 0.6425 0.0000
vt 0.8664 0.6285 0.0000
vt 0.5762 0.6298 0.0000
vt 0.5762 0.6194 0.0000
vt 0.5626 0.6298 0.0000
vt 0.5626 0.6194 0.0000
vt 0.8394 0.6194 0.0000
vt 0.8394 0.6298 0.0000
vt 0.8530 0.6194 0.0000
vt 0.8530 0.6298 0.0000
vt 0.8663 0.6581 0.0000
vt 0.8577 0.6581 0.0000
vt 0.8663 0.6692 0.0000
vt 0.8577 0.6692 0.0000
vt 0.8577 0.6129 0.0000
vt 0.8663 0.6129 0.0000
vt 0.8577 0.6017 0.0000
vt 0.8663 0.6017 0.0000
vt 0.8394 0.6081 0.0000
vt 0.8394 0.6185 0.0000
vt 0.8530 0.6081 0.0000
vt 0.8530 0.6185 0.0000
vt 0.5762 0.6185 0.0000
vt 0.5762 0.6081 0.0000
vt 0.5626 0.6185 0.0000
vt 0.5626 0.6081 0.0000
vt 0.8749 0.6581 0.0000
vt 0.8664 0.6581 0.0000
vt 0.8749 0.6692 0.0000
vt 0.8664 0.6692 0.0000
vt 0.8664 0.6129 0.0000
vt 0.8749 0.6129 0.0000
vt 0.8664 0.6017 0.0000
vt 0.8749 0.6017 0.0000
vt 0.5482 0.6239 0.0000
vt 0.5513 0.6023 0.0000
vt 0.5569 0.6043 0.0000
vt 0.5541 0.6243 0.0000
vt 0.5605 0.5868 0.0000
vt 0.5648 0.5911 0.0000
vt 0.5759 0.5776 0.0000
vt 0.5780 0.5833 0.0000
vt 0.5975 0.5745 0.0000
vt 0.5980 0.5804 0.0000
vt 0.8534 0.5745 0.0000
vt 0.8530 0.5804 0.0000
vt 0.8750 0.5776 0.0000
vt 0.8730 0.5833 0.0000
vt 0.8904 0.5868 0.0000
vt 0.8861 0.5911 0.0000
vt 0.8997 0.6023 0.0000
vt 0.8940 0.6043 0.0000
vt 0.9027 0.6239 0.0000
vt 0.8968 0.6243 0.0000
vt 0.9027 0.6433 0.0000
vt 0.8968 0.6429 0.0000
vt 0.8997 0.6649 0.0000
vt 0.8940 0.6629 0.0000
vt 0.8904 0.6803 0.0000
vt 0.8861 0.6760 0.0000
vt 0.8750 0.6896 0.0000
vt 0.8730 0.6839 0.0000
vt 0.8534 0.6927 0.0000
vt 0.8530 0.6868 0.0000
vt 0.5975 0.6927 0.0000
vt 0.5980 0.6868 0.0000
vt 0.5759 0.6896 0.0000
vt 0.5780 0.6839 0.0000
vt 0.5605 0.6803 0.0000
vt 0.5648 0.6760 0.0000
vt 0.5513 0.6649 0.0000
vt 0.5569 0.6629 0.0000
vt 0.5482 0.6433 0.0000
vt 0.5541 0.6429 0.0000
vt 0.8790 0.6257 0.0000
vt 0.8790 0.6112 0.0000
vt 0.8829 0.6112 0.0000
vt 0.8829 0.6257 0.0000
vt 0.8790 0.6017 0.0000
vt 0.8829 0.6017 0.0000
vt 0.5677 0.6342 0.0000
vt 0.5792 0.6342 0.0000
vt 0.5792 0.6389 0.0000
vt 0.5677 0.6389 0.0000
vt 0.5968 0.6342 0.0000
vt 0.5968 0.6389 0.0000
vt 0.8213 0.6342 0.0000
vt 0.8213 0.6389 0.0000
vt 0.8389 0.6342 0.0000
vt 0.8389 0.6389 0.0000
vt 0.8505 0.6342 0.0000
vt 0.8505 0.6389 0.0000
vt 0.8751 0.6630 0.0000
vt 0.8751 0.6535 0.0000
vt 0.8789 0.6535 0.0000
vt 0.8789 0.6630 0.0000
vt 0.8751 0.6391 0.0000
vt 0.8789 0.6391 0.0000
vt 0.8751 0.6257 0.0000
vt 0.8789 0.6257 0.0000
vt 0.8751 0.6112 0.0000
vt 0.8789 0.6112 0.0000
vt 0.8751 0.6017 0.0000
vt 0.8789 0.6017 0.0000
vt 0.8496 0.6463 0.0000
vt 0.8381 0.6463 0.0000
vt 0.8381 0.6416 0.0000
vt 0.8496 0.6416 0.0000
vt 0.8205 0.6463 0.0000
vt 0.8205 0.6416 0.0000
vt 0.5960 0.6463 0.0000
vt 0.5960 0.6416 0.0000
vt 0.5784 0.6463 0.0000
vt 0.5784 0.6416 0.0000
vt 0.5669 0.6463 0.0000
vt 0.5669 0.6416 0.0000
vt 0.8790 0.6630 0.0000
vt 0.8790 0.6535 0.0000
vt 0.8829 0.6535 0.0000
vt 0.8829 0.6630 0.0000
vt 0.8790 0.6391 0.0000
vt 0.8829 0.6391 0.0000
vt 0.5802 0.8953 0.0000
vt 0.5802 0.8588 0.0000
vt 0.6167 0.8588 0.0000
vt 0.6167 0.8953 0.0000
vt 0.9472 0.2048 0.0000
vt 0.9837 0.2048 0.0000
vt 0.9837 0.2413 0.0000
vt 0.9472 0.2413 0.0000
vt 0.4505 0.2551 0.0000
vt 0.4872 0.2551 0.0000
vt 0.4872 0.9518 0.0000
vt 0.4505 0.9518 0.0000
vt 0.2616 0.2061 0.0000
vt 0.2983 0.2061 0.0000
vt 0.2983 0.9028 0.0000
vt 0.2616 0.9028 0.0000
vt 0.5049 0.2511 0.0000
vt 0.5416 0.2511 0.0000
vt 0.5416 0.9478 0.0000
vt 0.5049 0.9478 0.0000
vt 0.1642 0.2415 0.0000
vt 0.2009 0.2415 0.0000
vt 0.2009 0.9382 0.0000
vt 0.1642 0.9382 0.0000
vt 0.4872 0.9885 0.0000
vt 0.4505 0.9885 0.0000
vt 0.2983 0.9395 0.0000
vt 0.2616 0.9395 0.0000
vt 0.5416 0.9844 0.0000
vt 0.5049 0.9844 0.0000
vt 0.9750 0.0264 0.0000
vt 0.9750 0.0630 0.0000
vt 0.6097 0.0630 0.0000
vt 0.6097 0.0264 0.0000
vt 0.6537 0.8953 0.0000
vt 0.6172 0.8953 0.0000
vt 0.6172 0.8588 0.0000
vt 0.6537 0.8588 0.0000
vt 0.5820 0.2048 0.0000
vt 0.5820 0.2413 0.0000
vt 0.5455 0.2413 0.0000
vt 0.5455 0.2048 0.0000
vt 0.0838 0.2551 0.0000
vt 0.0838 0.9518 0.0000
vt 0.0472 0.9518 0.0000
vt 0.0472 0.2551 0.0000
vt 0.2547 0.2053 0.0000
vt 0.2547 0.9019 0.0000
vt 0.2180 0.9019 0.0000
vt 0.2180 0.2053 0.0000
vt 0.9449 0.2511 0.0000
vt 0.9449 0.9478 0.0000
vt 0.9083 0.9478 0.0000
vt 0.9083 0.2511 0.0000
vt 0.1485 0.2429 0.0000
vt 0.1485 0.9396 0.0000
vt 0.1119 0.9396 0.0000
vt 0.1119 0.2429 0.0000
vt 0.0838 0.9885 0.0000
vt 0.0472 0.9885 0.0000
vt 0.2547 0.9386 0.0000
vt 0.2180 0.9386 0.0000
vt 0.9449 0.9844 0.0000
vt 0.9083 0.9844 0.0000
# 240 texture coords

o Box001
g Box001
usemtl wire_086086086
s 1
f 1/1/1 2/2/2 3/3/3 4/4/4 5/5/5 6/6/6 7/7/7 8/8/8 9/9/9 10/10/10 11/11/11 12/12/12 13/13/13 14/14/14 15/15/15 16/16/16 17/17/17 18/18/18 19/19/19 20/20/20 
f 21/21/21 22/22/22 23/23/23 24/24/24 25/25/25 26/26/26 27/27/27 28/28/28 29/29/29 30/30/30 31/31/31 32/32/32 33/33/33 34/34/34 35/35/35 36/36/36 37/37/37 38/38/38 39/39/39 40/40/40 
s 2
f 1/41/1 20/42/20 41/43/36 42/44/35 
f 16/45/16 15/46/15 43/47/21 44/48/40 
f 11/49/11 10/50/10 45/51/26 46/52/25 
f 6/53/6 5/54/5 47/55/31 48/56/30 
f 41/43/36 20/42/20 19/57/19 49/58/37 
f 49/58/37 19/57/19 18/59/18 50/60/41 
f 1/41/1 42/44/35 51/61/34 2/62/2 
f 2/62/2 51/61/34 52/63/42 3/64/3 
f 43/47/21 15/46/15 14/65/14 53/66/43 
f 53/66/43 14/65/14 13/67/13 54/68/44 
f 16/45/16 44/48/40 55/69/45 17/70/17 
f 17/70/17 55/69/45 50/71/41 18/72/18 
f 45/51/26 10/50/10 9/73/9 56/74/27 
f 56/74/27 9/73/9 8/75/8 57/76/46 
f 11/49/11 46/52/25 58/77/24 12/78/12 
f 12/78/12 58/77/24 54/79/44 13/80/13 
f 47/55/31 5/54/5 4/81/4 59/82/47 
f 59/82/47 4/81/4 3/83/3 52/84/42 
f 6/53/6 48/56/30 60/85/48 7/86/7 
f 7/86/7 60/85/48 57/87/46 8/88/8 
s 1
f 47/89/31 59/90/47 61/91/49 62/92/50 
f 59/90/47 52/93/42 63/94/51 61/91/49 
f 52/93/42 51/95/34 64/96/52 63/94/51 
f 51/95/34 42/97/35 65/98/53 64/96/52 
f 42/97/35 41/99/36 66/100/54 65/98/53 
f 41/99/36 49/101/37 67/102/55 66/100/54 
f 49/101/37 50/103/41 68/104/56 67/102/55 
f 50/103/41 55/105/45 69/106/57 68/104/56 
f 55/105/45 44/107/40 70/108/58 69/106/57 
f 44/107/40 43/109/21 71/110/59 70/108/58 
f 43/109/21 53/111/43 72/112/60 71/110/59 
f 53/111/43 54/113/44 73/114/61 72/112/60 
f 54/113/44 58/115/24 74/116/62 73/114/61 
f 58/115/24 46/117/25 75/118/63 74/116/62 
f 46/117/25 45/119/26 76/120/64 75/118/63 
f 45/119/26 56/121/27 77/122/65 76/120/64 
f 56/121/27 57/123/46 78/124/66 77/122/65 
f 57/123/46 60/125/48 79/126/67 78/124/66 
f 60/125/48 48/127/30 80/128/68 79/126/67 
f 48/127/30 47/89/31 62/92/50 80/128/68 
s 2
f 62/129/50 61/130/49 22/131/22 21/132/21 
f 61/130/49 63/133/51 23/134/23 22/131/22 
f 63/135/51 64/136/52 24/137/24 23/138/23 
f 64/136/52 65/139/53 25/140/25 24/137/24 
f 65/139/53 66/141/54 26/142/26 25/140/25 
f 66/141/54 67/143/55 27/144/27 26/142/26 
f 67/143/55 68/145/56 28/146/28 27/144/27 
f 68/147/56 69/148/57 29/149/29 28/150/28 
f 69/148/57 70/151/58 30/152/30 29/149/29 
f 70/151/58 71/153/59 31/154/31 30/152/30 
f 71/153/59 72/155/60 32/156/32 31/154/31 
f 72/155/60 73/157/61 33/158/33 32/156/32 
f 73/159/61 74/160/62 34/161/34 33/162/33 
f 74/160/62 75/163/63 35/164/35 34/161/34 
f 75/163/63 76/165/64 36/166/36 35/164/35 
f 76/165/64 77/167/65 37/168/37 36/166/36 
f 77/167/65 78/169/66 38/170/38 37/168/37 
f 78/171/66 79/172/67 39/173/39 38/174/38 
f 79/172/67 80/175/68 40/176/40 39/173/39 
f 80/175/68 62/129/50 21/132/21 40/176/40 
f 81/177/69 82/178/70 83/179/71 84/180/72 
s 4
f 85/181/73 86/182/74 87/183/75 88/184/76 
s 8
f 81/185/69 84/186/72 89/187/77 90/188/78 
s 16
f 84/189/72 83/190/71 91/191/79 89/192/77 
s 32
f 83/193/71 82/194/70 92/195/80 91/196/79 
s 64
f 82/197/70 81/198/69 90/199/78 92/200/80 
s 8
f 89/187/77 86/201/74 85/202/73 90/188/78 
s 16
f 91/191/79 87/203/75 86/204/74 89/192/77 
s 32
f 92/195/80 88/205/76 87/206/75 91/196/79 
s off
f 92/207/80 90/208/78 93/209/81 94/210/82 
s 2
f 95/211/72 96/212/69 97/213/70 98/214/71 
s 4
f 99/215/73 100/216/76 101/217/83 102/218/84 
s 8
f 95/219/72 93/220/81 103/221/85 96/222/69 
s 16
f 96/223/69 103/224/85 104/225/86 97/226/70 
s 32
f 97/227/70 104/228/86 94/229/82 98/230/71 
s 64
f 98/231/71 94/232/82 93/233/81 95/234/72 
s 8
f 103/221/85 93/220/81 99/235/73 102/236/84 
s 16
f 104/225/86 103/224/85 102/237/84 101/238/83 
s 32
f 94/229/82 104/228/86 101/239/83 100/240/76 
s off
f 99/215/73 85/181/73 88/184/76 100/216/76 
f 100/240/76 88/205/76 92/195/80 94/229/82 
f 93/220/81 90/188/78 85/202/73 99/235/73 
# 84 polygons

